<svg xmlns="http://www.w3.org/2000/svg" version="1.1" viewBox="0 0 100 100">
    <path d="M36.1007 38.1167v19.0204h28.5306V38.1167zm7.922 17.4323h-6.3432V43.666h6.3433zm19.0204 0H45.611V43.666H63.043z"/>
    <path d="M59.0821 45.2448H50.366v1.588h8.7161zM59.0821 47.627H50.366v1.588h8.7161zM59.0821 49.9999H50.366v1.588h8.7161zM59.0821 52.382H50.366v1.5881h8.7161z"/>
    <path d="M70.9652 58.956V36.9996c0-1.0341-.4709-2.853-1.662-2.853H31.4195c-1.191 0-2.3729 1.8189-2.3729 2.853v21.9566c-4.275 4.5981-4.0441 4.5981-4.0441 4.5981 0 1.265.637 2.299 2.456 2.299h45.1688c1.422 0 2.373-1.034 2.373-2.299zM53.93 63.9513h-7.8482c-.397 0-.794-.157-.794-.397l.8678-1.422c0-.1569.314-.24.6371-.24h6.3432c.314 0 .6371.0831.6371.24l.951 1.5051c0 .157-.397.314-.794.314zm15.4471-5.309c-5.5491.083-38.8348.083-38.8348.083V37.332c0-.554.4709-1.588 1.108-1.588H68.426c.6371 0 1.0341.7109 1.0341 1.191V58.642z"/>
</svg>