<svg xmlns="http://www.w3.org/2000/svg" version="1.1" viewBox="0 0 100 100">
  <path d="M49.9934 25C36.1332 25 25 36.2553 25 50s11.1332 25 24.9934 25S75 63.758 75 50 63.8668 25 49.9934 25zm-2.2637 11.3612v-7.9581h4.5406v7.9581h2.277l-4.5407 9.2029-4.5406-9.2029h2.2637zm-10.233 18.1806L28.2963 50l9.2004-4.5418v2.2775h7.956v4.5418h-7.956v2.2643zM52.2703 62.5v7.9582h-4.5406V62.5h-2.277l4.5407-9.2029L54.534 62.5h-2.2637zm10.233-7.9582v-2.2775h-7.956v-4.5418h7.956v-2.2776l9.2004 4.5419-9.2004 4.555z"/>
</svg>