<svg xmlns="http://www.w3.org/2000/svg" version="1.1" viewBox="0 0 100 100">
  <path d="M34.25 75.004h16.065v-50H34.25zm13.322-28.868h-4.3377v-4.3253h4.3377zm-10.789-6.4385v-4.3377h4.3377v4.3377zm6.5497 0v-4.3377h4.3377v4.3377zm-.0989-10.789h4.3377v4.3377h-4.3377zm-6.4509 0h4.3377v4.3377H36.783zm0 12.902h4.3377v4.3377H36.783zm10.789 23.777h-4.3377v-4.3377h4.3377zM36.783 59.149v-4.3377h4.3377v4.3377zm6.5497 0v-4.3377h4.3377v4.3377zm-.0988-10.789h4.3377v4.3377h-4.3377zm-6.451 0h4.3378v4.3377h-4.3377zm0 12.902h4.3378v4.3377h-4.3377zm26.953-19.983v-5.178h-2.3232v-4.9679h-1.693v-4.6466h-1.3717v4.6466h-1.693v4.9679h-2.3233v5.178h-1.9031v33.725h13.322V41.279zm-4.8566 20.292h-4.3377v-4.3377h4.3377zm0-13.211h-4.3377v-4.3377h4.3377zm5.0668 6.5497h-4.3377v-4.3253h4.3377z"/>
</svg>