<svg xmlns="http://www.w3.org/2000/svg" version="1.1" viewBox="0 0 100 100">
  <path stroke-width=".626" d="M64.0556 24.9991H32.5868c-3.674 0-6.7091 3.035-6.7091 6.709v36.5805c0 3.674 3.035 6.7091 6.709 6.7091h34.8234c3.674 0 6.709-3.035 6.709-6.709V34.903zm5.9103 43.2895c0 1.4377-1.1181 2.5559-2.5558 2.5559H32.5868c-1.4377 0-2.5559-1.1182-2.5559-2.5559V31.7082c0-1.4377 1.1182-2.5559 2.5559-2.5559h29.3921v8.1468h7.987z"/>
  <path fill-rule="evenodd" d="M60.863 61.262v.1597c-.1597.9585-1.278 1.917-2.2364 1.917h-8.3067c-.9585 0-1.5974-.9585-1.4377-1.917v-.1597c.3195-.9585 1.278-1.7572 2.2364-1.7572h8.3067c1.1182-.1597 1.7572.639 1.4377 1.7572zM38.659 62.54c-.639-.7987-.3195-1.9169.639-2.5559l14.696-10.224-9.425-10.383c-.6389-.639-.3194-1.7572.639-2.5559h.1598c.4792-.3195 1.4377-.4792 2.0767.3195l9.1054 10.224 1.1182 1.1182.1597.1597c.639.639.7988 2.0767.1598 2.7157l-1.5974 1.1182-14.696 10.224c-1.1182.639-2.3962.639-3.0351-.1597z" clip-rule="evenodd"/>
</svg>