<svg xmlns="http://www.w3.org/2000/svg" version="1.1" viewBox="0 0 100 100">
  <path fill-rule="evenodd" d="M66.604 48.585H33.396c-.9434 0-1.7925.566-1.7925 1.3208v6.6981c0 .7547.7547 1.3208 1.7925 1.3208h33.208c.9434 0 1.7925-.566 1.7925-1.3208v-6.6981c0-.6604-.849-1.3208-1.7925-1.3208zm-29.34 6.6038c-1.0377 0-1.8868-.849-1.8868-1.8868 0-1.0377.849-1.8868 1.8868-1.8868s1.8868.849 1.8868 1.8868c0 1.0377-.849 1.8868-1.8868 1.8868zm8.4906 0c-1.0377 0-1.8868-.849-1.8868-1.8868 0-1.0377.849-1.8868 1.8868-1.8868s1.8868.849 1.8868 1.8868c0 1.0377-.849 1.8868-1.8868 1.8868zm8.4906 0c-1.0377 0-1.8868-.849-1.8868-1.8868 0-1.0377.849-1.8868 1.8868-1.8868s1.8868.849 1.8868 1.8868c0 1.0377-.849 1.8868-1.8868 1.8868zm8.4906 0c-1.0377 0-1.8868-.849-1.8868-1.8868 0-1.0377.849-1.8868 1.8868-1.8868s1.8868.849 1.8868 1.8868c0 1.0377-.849 1.8868-1.8868 1.8868z" clip-rule="evenodd"/>
  <path fill-rule="evenodd" stroke-width="1.06" d="M38.396 39.1507l-6.7925 6.6038H68.396l-6.7925-6.6038z" clip-rule="evenodd"/>
  <path stroke-width="1.06" d="M67.6414 39.3394l5.6604-5.6604v5.283l1.698-1.6038v-6.6981h-6.698l-1.6982 1.6981h5.3774l-5.6604 5.6604zM67.6414 60.6602l5.6604 5.6604v-5.283l1.698 1.6037v6.6982h-6.698l-1.6982-1.6981h5.3774l-5.6604-5.6604zM33.3016 39.3394l-5.6604-5.6604v5.283l-1.6981-1.6038v-6.6981h6.6981l1.6038 1.6981h-5.283l5.6604 5.6604zM32.3582 60.6602l-5.6604 5.6604v-5.283l-1.6981 1.6037v6.6982h6.6981l1.6038-1.6981h-5.283l5.6604-5.6604z"/>
</svg>