<svg xmlns="http://www.w3.org/2000/svg" version="1.1" viewBox="0 0 100 100">
  <path stroke-width=".85" d="M72.59 59.825H27.4124c-1.0588 0-1.8824.8236-1.8824 1.8824v11.412c0 1.059.8236 1.8825 1.8824 1.8825H72.59c1.0589 0 1.8824-.8236 1.8824-1.8824v-11.412c0-1.059-.8235-1.8825-1.8824-1.8825zM29.6478 73.1195c-.9412 0-1.7648-.8236-1.7648-1.7648s.8236-1.7647 1.7648-1.7647 1.7647.8235 1.7647 1.7647-.8235 1.7648-1.7647 1.7648zm41.1775-.706h-9.8826c-.353 0-.5883-.2352-.5883-.5882s.2353-.5882.5883-.5882h9.8826c.353 0 .5882.2353.5882.5882s-.2353.5883-.5882.5883zm0-1.8823h-9.8826c-.353 0-.5883-.2353-.5883-.5883s.2353-.5882.5883-.5882h9.8826c.353 0 .5882.2353.5882.5882s-.2353.5883-.5882.5883zm0-1.8824h-9.8826c-.353 0-.5883-.2353-.5883-.5883s.2353-.5882.5883-.5882h9.8826c.353 0 .5882.2353.5882.5882s-.2353.5883-.5882.5883zM72.59 42.4128H27.4124c-1.0588 0-1.8824.8236-1.8824 1.8824v11.412c0 1.059.8236 1.8825 1.8824 1.8825H72.59c1.0589 0 1.8824-.8236 1.8824-1.8824v-11.412c0-1.059-.8235-1.8825-1.8824-1.8825zM29.6478 55.7073c-.9412 0-1.7648-.8236-1.7648-1.7648s.8236-1.7647 1.7648-1.7647 1.7647.8235 1.7647 1.7647-.8235 1.7648-1.7647 1.7648zm41.1775-.706h-9.8826c-.353 0-.5883-.2352-.5883-.5882s.2353-.5882.5883-.5882h9.8826c.353 0 .5882.2353.5882.5882s-.2353.5883-.5882.5883zm0-1.8823h-9.8826c-.353 0-.5883-.2353-.5883-.5883s.2353-.5882.5883-.5882h9.8826c.353 0 .5882.2353.5882.5882s-.2353.5883-.5882.5883zm0-1.8824h-9.8826c-.353 0-.5883-.2353-.5883-.5883s.2353-.5882.5883-.5882h9.8826c.353 0 .5882.2353.5882.5882s-.2353.5883-.5882.5883zM72.59 25.0006H27.4124c-1.0588 0-1.8824.8236-1.8824 1.8824v11.412c0 1.059.8236 1.8825 1.8824 1.8825H72.59c1.0589 0 1.8824-.8236 1.8824-1.8824V26.883c0-1.059-.8235-1.8825-1.8824-1.8825zM29.6478 38.2951c-.9412 0-1.7648-.8236-1.7648-1.7648s.8236-1.7647 1.7648-1.7647 1.7647.8235 1.7647 1.7647-.8235 1.7648-1.7647 1.7648zm41.1775-.706h-9.8826c-.353 0-.5883-.2352-.5883-.5882s.2353-.5882.5883-.5882h9.8826c.353 0 .5882.2353.5882.5882s-.2353.5883-.5882.5883zm0-1.8823h-9.8826c-.353 0-.5883-.2353-.5883-.5883s.2353-.5882.5883-.5882h9.8826c.353 0 .5882.2353.5882.5882s-.2353.5883-.5882.5883zm0-1.8824h-9.8826c-.353 0-.5883-.2353-.5883-.5883s.2353-.5882.5883-.5882h9.8826c.353 0 .5882.2353.5882.5882 0 .2353-.2353.5883-.5882.5883z"/>
</svg>