<svg xmlns="http://www.w3.org/2000/svg" version="1.1" viewBox="0 0 100 100">
  <path d="M49.345 25.327c-7.0387 1.6775-11.15 9.4398-9.1767 17.367 1.9735 7.8939 9.1767 12.696 16.215 11.019 7.0387-1.6775 11.15-9.4398 9.1767-17.367-1.9735-7.7623-9.3082-12.696-16.215-11.019zM64.406 55.824c-1.2828-.1316-2.8286 2.4011-4.8021 3.3878-1.9735.8552-4.0785 2.6642-9.7358 0s-6.4796-4.9337-11.282-4.9337c-4.8021 0-12.4 8.4531-12.564 20.721h47.955c-.1316 0-.5591-8.4531-3.2562-12.992-3.1905-6.052-5.0324-6.1836-6.3151-6.1836z"/>
</svg>