<svg xmlns="http://www.w3.org/2000/svg" version="1.1" viewBox="0 0 100 100">
  <path fill="#2a3282" d="M45.8435 56.1247H28.906c-.8794 0-1.5647-.807-1.5647-1.8427V33.6487h4.8883v-5.6492H63.649c.8794 0 1.5647.807 1.5647 1.8427v.2287c.788.2286 1.6675.686 2.4441 1.0357v-1.3854C67.6578 27.179 65.899 25 63.649 25H30.8704L25 32.0347V54.282c0 2.5422 1.7589 4.7212 4.0088 4.7212h18.3994c-.6853-.9147-1.1764-1.8293-1.5647-2.8785zm21.2168 5.0283l5.8704 10.37-5.482-1.7351-1.5647 5.1917-5.8704-9.2267-4.4085 9.2267-2.0558-5.528-5.482 1.7351 5.3792-10.9483s1.4733 2.9994 6.7498 2.9994c5.3907-.0135 6.864-2.0848 6.864-2.0848z"/>
  <path fill="#2a3282" d="M60.6486 59.237c-5.1851 0-9.3995-4.9495-9.3995-10.9482s4.203-10.9483 9.3995-10.9483 9.3995 4.9496 9.3995 10.9483c-.0914 5.9987-4.203 10.9483-9.3995 10.9483zm0-19.4755c-4.0088 0-7.3437 3.8063-7.3437 8.5273s3.3235 8.5273 7.3437 8.5273 7.3437-3.8064 7.3437-8.5273c0-4.721-3.3235-8.5273-7.3437-8.5273z"/>
  <path fill="#2a3282" d="M60.609 65.055c-7.9263 0-14.3906-7.4916-14.3906-16.7183s6.4643-16.7184 14.3905-16.7184S74.9994 39.11 74.9994 48.3367c0 9.1056-6.4643 16.7183-14.3905 16.7183zm0-31.0022c-6.7499 0-12.3348 6.456-12.3348 14.2973s5.4821 14.2974 12.3347 14.2974 12.3347-6.456 12.3347-14.2974c0-7.9624-5.482-14.2973-12.3347-14.2973z"/>
</svg>