<svg xmlns="http://www.w3.org/2000/svg" version="1.1" viewBox="0 0 100 100">
  <path fill="#59b4d9" d="M50.001 75c-1.232 0-2.392-.48-3.2609-1.352L26.3511 53.26c-.859-.859-1.351-2.046-1.351-3.2609 0-1.214.492-2.402 1.351-3.2599l20.389-20.388c.871-.872 2.029-1.352 3.2609-1.352 1.231 0 2.39.48 3.2609 1.352l20.386 20.388c.873.868 1.352 2.027 1.352 3.2599s-.479 2.392-1.353 3.2629l-20.385 20.386c-.87.872-2.03 1.352-3.2609 1.352"/>
  <path fill="#fff" d="M63.614 46.093c-2.16 0-3.9099 1.75-3.9099 3.9089 0 .792.239 1.527.645 2.143l-7.7438 7.7438c-.206-.144-.427-.264-.656-.373v-19.757c1.167-.676 1.961-1.924 1.961-3.3699 0-2.159-1.75-3.9089-3.9099-3.9089-2.158 0-3.9079 1.75-3.9079 3.909 0 1.446.794 2.6938 1.96 3.3698v19.756c-.219.104-.434.216-.632.353l-7.7528-7.7528c.394-.61.628-1.333.628-2.113 0-2.159-1.75-3.9089-3.9079-3.9089-2.16 0-3.9099 1.75-3.9099 3.9089s1.75 3.9089 3.9099 3.9089c.448 0 .872-.091 1.274-.23l8.1498 8.1498c-.234.548-.364 1.15-.364 1.783 0 2.5129 2.038 4.5509 4.551 4.5509 2.514 0 4.5508-2.038 4.5508-4.5509 0-.621-.126-1.212-.351-1.751l8.1728-8.1718c.392.132.804.22 1.241.22 2.158 0 3.908-1.75 3.908-3.9089s-1.749-3.9089-3.906-3.9089z"/>
  <path fill="#fff" d="M65.4727 49.981l-1.7837 1.7843-14.622-14.6169 1.7837-1.7843z" opacity=".5"/>
  <path fill="#fff" d="M49.166 35.3772l1.7846 1.7847L36.3304 51.782l-1.7846-1.7847z" opacity=".5"/>
  <path fill="#b8d432" d="M52.665 63.613c0 1.496-1.214 2.7089-2.7099 2.7089-1.497 0-2.7089-1.213-2.7089-2.7089s1.212-2.7089 2.7089-2.7089c1.495 0 2.7099 1.213 2.7099 2.7089M52.174 36.389c0 1.201-.973 2.174-2.174 2.174s-2.174-.973-2.174-2.174.973-2.174 2.174-2.174 2.174.973 2.174 2.174M38.563 50c0 1.201-.975 2.174-2.174 2.174-1.201 0-2.174-.973-2.174-2.174s.973-2.174 2.174-2.174c1.199 0 2.174.973 2.174 2.174M65.788 50c0 1.201-.975 2.174-2.175 2.174s-2.174-.973-2.174-2.174.974-2.174 2.174-2.174 2.175.973 2.175 2.174"/>
  <path fill="#fff" d="M53.262 26.352C52.391 25.48 51.233 25 50.0011 25c-1.231 0-2.389.48-3.2599 1.352L26.3522 46.74c-.86.858-1.352 2.046-1.352 3.2599 0 1.215.492 2.403 1.352 3.2609l11.543 11.544 21.715-32.105z" opacity=".1"/>
</svg>