<svg xmlns="http://www.w3.org/2000/svg" version="1.1" viewBox="0 0 100 100">
  <path fill="#a0a1a2" d="M45.1 71.5H28.5V55h3.4c-.4-1-.6-2.1-.6-3.3v-.2H25V75h23.6V61h-3.5zM68.5 55h3v16.6H54.9V61.1h-3.5V75H75V51.5h-7.4c.5 1 .9 2 .9 3.3v.2zM28.5 45V28.5h16.6v9.6c1-.8 2.3-1.3 3.5-1.6V25H25v23.5h6.8c.5-1.2 1.2-2.5 2.2-3.4zM54.9 36.1v-7.6h16.6v16.6h-7.3c.3 1 .5 2.2.5 3.4v.1H75V25H51.4v10.9c.3 0 .5-.1.8-.1.9.1 1.8.1 2.7.3z"/>
  <path fill="#59b4d9" d="M65.8 54.7c0-2.1-1.7-3.7-3.7-3.7h-.5c.2-.8.4-1.7.4-2.6 0-5.5-4.4-9.9-9.9-9.9-4.3 0-8 2.8-9.3 6.8-.7-.2-1.4-.4-2.2-.4-3.7 0-6.7 3-6.7 6.8s3 6.8 6.7 6.8h21.8c1.9-.2 3.4-1.8 3.4-3.8"/>
  <path fill="#fff" d="M44.2 58.5c-.9-.9-1.5-2-1.8-3.3-.8-3.7 1.4-7.3 5.1-8.1.8-.2 1.5-.2 2.2-.1.3-3.4 2.4-6.5 5.5-8-.9-.3-1.9-.5-3-.5-4.3 0-8 2.8-9.3 6.8-.7-.2-1.4-.4-2.2-.4-3.7 0-6.7 3-6.7 6.8s3 6.8 6.7 6.8z" opacity=".2"/>
</svg>