<svg xmlns="http://www.w3.org/2000/svg" version="1.1" viewBox="0 0 100 100">
  <path fill="#59b4d9" d="M65.1929 69.848c-4.53 3.4647-9.867 5.152-15.167 5.152-7.52 0-14.956-3.3767-19.87-9.805-8.396-10.9642-6.324-26.6443 4.658-35.046 4.529-3.4857 9.872-5.149 15.165-5.149 7.52 0 14.958 3.3767 19.87 9.811 8.398 10.9612 6.305 26.6443-4.656 35.037"/>
  <path fill="#ffffff" d="M60.5999 54.3839c1.816 2.3685 5.186 2.7965 7.541 1.0042.123-.094.218-.208.33-.309 2.409 1.6973 4.082 2.8175 5.025 3.4596.279-.7231.472-1.4173.67-2.1424-.996-.7412-2.343-1.7784-4.29-3.3567.639-1.6803.437-3.6407-.73-5.172a5.36 5.36 0 0 0-6.936-1.3773 224.3362 224.3362 0 0 1-8.293-7.8346c9.165-4.93 15.676-4.2078 15.676-4.2078-1.087-1.3863-2.305-2.6005-3.606-3.6977-3.865-.5972-9.869-.5302-16.729 3.1196l-.002-.003h-.001c-2.286-2.3935-4.613-4.959-6.983-7.7136a23.2658 23.2658 0 0 0-3.312 1.3473c1.749 2.8626 4.102 5.7501 6.754 8.5667.005.006.011.011.017.017-2.211 1.5463-4.673 3.6137-6.944 6.0162-.29.309-.569.6201-.842.9312-1.357-.284-2.784-.201-4.117.282-2.264-4.886-2.082-8.8107-1.724-10.8341-.983 1.0302-1.901 2.1134-2.692 3.2676-.591 2.4155-.759 5.8992.985 10.097-2.019 2.6426-2.114 6.3903-.005 9.1549.176.229.364.442.559.6451-.921 3.1377-1.333 6.1643-1.46 8.7628.237.322.237.5821.472.8962 1.199 1.5383 2.705 2.8345 4.16 4.0088-.18-2.7506.014-6.8074 1.714-11.3743a7.5052 7.5052 0 0 0 3.483-.5661c.64.563 1.31 1.1322 2.025 1.7113 2.453 1.9424 4.9 3.4537 7.285 4.644-.124 1.2132.18 2.4744.968 3.5186 1.685 2.1765 4.805 2.5826 6.983.9192.453-.347.811-.7661 1.108-1.2162 3.889.8662 7.287 1.0192 9.806 1.0192.386 0 2.177-2.4365 3.203-3.9468-1.534.321-6.083.9462-12.3-.8402-.15-.6981-.437-1.3762-.898-1.9804-1.579-2.0704-4.466-2.5185-6.618-1.1332-2.161-1.1722-4.424-2.6415-6.758-4.4909-.471-.373-.923-.7451-1.359-1.1182 1.426-2.2475 1.578-5.128.318-7.5515.286-.286.567-.5731.871-.8572 2.311-2.1594 4.485-3.8878 6.519-5.275-.082-.076-.156-.156-.236-.233.081.075.157.152.239.227-.001 0-.001.001-.002.001 3.121 2.8865 6.43 5.622 9.564 8.0666-.829 1.7583-.699 3.8997.562 5.548z"/>
</svg>