<svg xmlns="http://www.w3.org/2000/svg" version="1.1" viewBox="0 0 100 100">
  <path fill="#7fba00" d="M49.95 74.95c-1.1976 0-2.3952-.499-3.2934-1.3972l-20.259-20.259c-.8982-.8982-1.3972-2.0958-1.3972-3.2934s.499-2.3952 1.3972-3.2934l20.259-20.259c.8982-.8982 2.0958-1.3972 3.2934-1.3972s2.3952.499 3.2934 1.3972l20.359 20.359c.8982.8982 1.3972 1.996 1.3972 3.2934 0 1.1976-.499 2.3952-1.3972 3.2934l-20.359 20.16c-.8982.8982-2.0958 1.3972-3.2934 1.3972"/>
  <path fill="#fff" d="M54.679 43.597c-1.3952 1.0669-3.0379 1.5858-4.6707 1.5858-2.3154 0-4.6048-1.0399-6.1188-3.019-2.5848-3.3752-1.9471-8.2026 1.4341-10.789 1.3942-1.0729 3.0399-1.5848 4.6697-1.5848 2.3154 0 4.6058 1.0399 6.1188 3.02 2.5858 3.3762 1.9411 8.2046-1.4331 10.787"/>
  <path fill="#fff" d="M53.244 26.447c-.8982-.8982-2.0958-1.3972-3.2934-1.3972s-2.3952.499-3.2934 1.3972l-20.259 20.259c-.8982.8982-1.3972 2.0958-1.3972 3.2934s.499 2.3952 1.3972 3.2934l11.477 11.477 21.657-32.036z" opacity=".15"/>
  <path fill="#fff" stroke-width="1.002" d="M56.5368 63.972h-4.6906V44.1607H47.954V63.972h-4.5908l6.5868 6.5868z"/>
  <path fill="#fff" stroke-width="1.002" d="M64.2513 49.1477l-3.2465 3.2465-8.427-8.4271-2.8224 2.8223 8.4271 8.4271-3.2465 3.2465h9.3153z"/>
  <path fill="#fff" stroke-width="1.002" d="M44.978 58.498l-3.2455-3.2455 8.6636-8.6637-2.8233-2.8233-8.6637 8.6636-3.2455-3.2455v9.3144z"/>
  <path fill="#59b4d9" d="M54.057 42.785c-1.2096.9252-2.6347 1.3752-4.0499 1.3752-2.008 0-3.994-.9012-5.3054-2.6178-2.2415-2.9271-1.6886-7.1128 1.2435-9.3563 1.2096-.9301 2.6357-1.3743 4.0489-1.3743 2.008 0 3.994.9012 5.3054 2.6188 2.2435 2.9271 1.6846 7.1138-1.2425 9.3543"/>
  <path fill="#fff" d="M52.83 38.658c.485.6327 1.3852.7465 2.014.2685.033-.025.0579-.056.0878-.0829.6437.4531 1.0898.7525 1.3413.9232.0749-.1926.1258-.3783.1787-.5719-.2655-.1976-.6258-.475-1.1457-.8962.1706-.4481.1167-.972-.1946-1.3812a1.431 1.431 0 0 0-1.8523-.3673 60.019 60.019 0 0 1-2.2146-2.0918c2.447-1.3164 4.1856-1.1238 4.1856-1.1238-.2905-.3702-.6158-.6946-.9631-.987-1.032-.1597-2.6347-.1417-4.4671.8324l-.001-.001c-.6108-.6388-1.2315-1.3244-1.8643-2.059a6.2172 6.2172 0 0 0-.8842.3593c.467.7645 1.0958 1.535 1.8034 2.2874.001.002.003.003.005.005-.5909.4132-1.2475.9651-1.8543 1.6058a10.0995 10.0995 0 0 0-.2246.2485c-.3623-.0758-.7435-.0539-1.0998.0749-.6048-1.3044-.5559-2.3523-.46-2.8922-.2626.2754-.508.5639-.7186.8722-.1577.6448-.2026 1.575.2634 2.6956-.5389.7056-.5648 1.7056-.001 2.4441.047.061.0968.1178.1497.1727-.2455.8373-.3563 1.6457-.3902 2.3393.0629.0858.0629.1557.1258.2395.3203.4102.7225.7565 1.1108 1.07-.048-.7346.004-1.8175.458-3.037.3134.024.6318-.026.9302-.1507.1706.1507.3493.3024.5409.4571.6547.519 1.3084.9222 1.9451 1.2395-.033.3244.048.6607.2585.9391.45.5809 1.2834.6897 1.8643.2455.1207-.0928.2166-.2045.2954-.3243 1.0389.2315 1.946.2725 2.6188.2725.1028 0 .5808-.6507.8553-1.054-.4092.0859-1.6248.2526-3.2844-.2245-.04-.1866-.1168-.3673-.2395-.529-.4212-.5528-1.1926-.6726-1.7675-.3023-.5769-.3134-1.1816-.7056-1.8044-1.1986a12.9096 12.9096 0 0 1-.3633-.2984c.3812-.5998.4212-1.3693.0848-2.016.0769-.0769.1517-.1527.2326-.2286.6167-.5768 1.1976-1.0379 1.7405-1.4082-.022-.02-.042-.0419-.063-.0619.022.02.042.041.064.061h-.001c.8333.7704 1.7166 1.501 2.5539 2.1536-.2206.469-.1857 1.041.1507 1.481z"/>
</svg>