<svg xmlns="http://www.w3.org/2000/svg" version="1.1" viewBox="0 0 100 100">
    <path d="M71.28 49c0-.375-.031-.734-.063-1.109l3.7819-2.094a18.719 18.719 0 0 0-.969-3.6249l-4.3129.078c-.328-.672-.688-1.328-1.094-1.938l2.219-3.7029c-.797-.969-1.688-1.859-2.6409-2.641l-2.188 1.297-.922 1.375-1.984 2.9219c2.813 2.188 4.625 5.5939 4.625 9.4378 0 6.5939-5.328 11.938-11.922 11.938-6.578 0-11.922-5.3439-11.922-11.938 0-5.9059 4.2808-10.781 9.9057-11.75l.906-3.6719-2.094-3.7809c-1.248.203-2.451.531-3.6069.968l.063 4.3279c-.656.313-1.313.672-1.922 1.094l-3.7029-2.219c-.969.781-1.844 1.672-2.6409 2.6409l2.219 3.7029c-.422.609-.766 1.266-1.094 1.938l-4.3279-.078c-.422 1.156-.75 2.375-.953 3.6249l3.766 2.094c-.031.375-.047.734-.047 1.109s.016.734.047 1.109l-3.766 2.094c.203 1.25.531 2.469.969 3.6249l4.313-.078c.328.672.672 1.328 1.094 1.938l-2.219 3.7029c.7969.969 1.672 1.859 2.6408 2.6559l3.703-2.234c.609.422 1.266.781 1.922 1.109l-.064 4.3119c1.156.438 2.359.766 3.6088.969l2.109-3.781c.359.031.719.063 1.094.063.375 0 .75-.031 1.109-.063l2.094 3.781c1.25-.203 2.469-.531 3.625-.969l-.078-4.313c.672-.328 1.313-.688 1.938-1.109l3.7028 2.234c.953-.7969 1.844-1.688 2.641-2.6558l-2.219-3.703c.406-.609.7659-1.266 1.094-1.938l4.3128.078c.438-1.156.766-2.375.969-3.6248l-3.7809-2.094c.03-.374.061-.733.061-1.108z" fill="#a0a1a2"/>
    <path d="M41 65.375v-1.859l-.102-.094-1.902-.641-.49-1.281.942-1.953.104-.219-.589-.594-.716-.719-.249.125-1.859.953-1.281-.359-.811-2.078h-1.844l-.094.094-.641 1.898-1.296.488-2.156-1.037-1.313 1.302.125.245.953 1.857-.531 1.28-2.25.811v1.859l.266.078 1.984.656.531 1.281-1.016 2.156 1.313 1.328.25-.125 1.859-.953 1.281.531.813 2.251h1.859l.078-.266.656-1.984 1.266-.531 2.172 1.016 1.313-1.313-.125-.25-.953-1.859.367-1.297zm-7.8278 1.719c-1.438 0-2.6089-1.172-2.6089-2.6089 0-1.437 1.172-2.6089 2.6089-2.6089 1.437 0 2.5939 1.172 2.5939 2.6089 0 1.437-1.157 2.6089-2.5939 2.6089z" fill="#7a7a7a"/>
    <path d="M58.296 27.344l-.719 2.266-1.234 3.9379-.594 1.889-.516 1.656-3.5939 11.422c-.078.219.031.391.281.391h3.313c.109 0 .188.031.234.094.078.078.094.188.047.313l-3.422 8.2968c-.094.219-.031.266.125.078l10.829-12.282c.156-.188.094-.328-.141-.328l-3.5469.016-.656.016c-.234 0-.344-.172-.219-.375l3.375-6.0159.797-1.438.9219-1.656 1.969-3.4839 1.125-2.031c-2.516-1.454-5.3439-2.423-8.3748-2.7659z" fill="#fcd116"/>
    <path d="M64.504 29.023l-7.8438 16.07h1.953c-.174-.037-.249-.183-.14-.359l3.3749-6.0159.797-1.438.922-1.656 1.969-3.4839 1.125-2.031c-.696-.401-1.417-.761-2.157-1.086zm-1.585 16.055l-2.189.01-8.0928 12.14 10.423-11.822c.156-.187.094-.328-.141-.328z" fill="#ff8c00" opacity=".3"/>
</svg>
