<svg xmlns="http://www.w3.org/2000/svg" version="1.1" viewBox="0 0 100 100">
    <path d="M64.125 48.246H35.868c-1.2024 0-2.3046 1.002-2.3046 2.505v10.721l3.9078 1.1022v-10.421h24.95v10.321l3.9078-1.1022V50.751c0-1.503-1.1022-2.505-2.2044-2.505z" clip-rule="evenodd" fill="#7a7a7a" fill-rule="evenodd"/>
    <path clip-rule="evenodd" fill="#7a7a7a" fill-rule="evenodd" d="M47.993 41.433h3.9078v10.421H47.993z"/>
    <path d="M56.309 25H43.684c-1.3026 0-2.4048 1.1022-2.4048 2.4048v11.723c0 1.3026 1.1022 2.4048 2.4048 2.4048h12.525c1.3026 0 2.4048-1.1022 2.4048-2.4048v-11.723C58.714 26.1022 57.6118 25 56.3092 25zM41.78 58.467H29.255c-1.3026 0-2.4048 1.1022-2.4048 2.4048v11.723c0 1.3026 1.1022 2.4048 2.4048 2.4048H41.78c1.3026 0 2.4048-1.1022 2.4048-2.4048v-11.723c0-1.3026-1.1022-2.4048-2.4048-2.4048zm28.958 0H58.213c-1.3026 0-2.4048 1.1022-2.4048 2.4048v11.723c0 1.3026 1.1022 2.4048 2.4048 2.4048h12.525c1.3026 0 2.4048-1.1022 2.4048-2.4048v-11.723c.1002-1.3026-1.002-2.4048-2.4048-2.4048z" clip-rule="evenodd" fill="#59b4d9" fill-rule="evenodd"/>
</svg>
