<svg xmlns="http://www.w3.org/2000/svg" version="1.1" viewBox="0 0 100 100">
    <path d="M70.083 40.8c.033-.35.05-.717.05-1.083 0-5.817-4.783-10.55-10.65-10.55-3.483-.001-6.683 1.666-8.65 4.399-1.266-.783-2.733-1.216-4.266-1.216-4.183 0-7.633 3.183-8.017 7.233.65-.083 1.3-.15 1.967-.15 3.083 0 6.05 1 8.467 2.767 1.816-4.184 6.433-6.867 11.549-7.017V31.6l6.25 5.35-6.25 5.317v-3.5c-2.933.116-5.783 1.216-7.433 3.883l.333-.033c5.967 0 10.9 4.467 11.6 10.183 1.417 1.067 2.533 2.35 3.333 3.817C72.233 55.583 75 52.25 75 48.166c0-3.283-1.767-5.9-4.917-7.366z" fill="#0072c6"/>
    <path d="M29.917 54.666c-.033-.367-.05-.733-.05-1.1 0-5.817 4.783-10.533 10.65-10.533 3.483 0 6.683 1.667 8.65 4.383 1.267-.783 2.733-1.2 4.267-1.2 4.433 0 8.05 3.583 8.05 7.983l-.017.634c3 1.517 4.617 4.033 4.617 7.183 0 4.95-4.033 8.817-9.183 8.817H34.183c-5.15 0-9.183-3.867-9.183-8.817 0-3.266 1.767-5.883 4.917-7.35z" fill="#59b4d9"/>
</svg>
