<svg xmlns="http://www.w3.org/2000/svg" version="1.1" viewBox="0 0 100 100">
  <path fill="#3999c6" d="M25.454 31.841v36.318c0 3.823 8.4506 6.841 18.813 6.841V31.842z"/>
  <path fill="#59b4d9" d="M44.066 74.999h.3018c10.463 0 18.813-3.0182 18.813-6.841V31.84h-19.115z"/>
  <path fill="#fff" d="M63.179 31.841c0 3.7223-8.4506 6.841-18.813 6.841s-18.913-3.1186-18.913-6.841c0-3.7223 8.4506-6.841 18.813-6.841 10.363 0 18.913 3.1186 18.913 6.841"/>
  <path fill="#7fba00" d="M59.357 31.438c0 2.5152-6.7405 4.5271-14.99 4.5271-8.2494 0-15.09-2.012-15.09-4.5271s6.7405-4.5271 14.99-4.5271 15.09 2.012 15.09 4.5271"/>
  <path fill="#b8d432" d="M56.137 34.154c2.012-.8048 3.1186-1.7103 3.1186-2.7163 0-2.5152-6.7405-4.5271-14.99-4.5271s-14.99 2.012-14.99 4.5271c0 1.006 1.2072 2.012 3.1186 2.7163 2.7163-1.1066 7.0423-1.7103 11.871-1.7103 4.829 0 9.1549.7042 11.871 1.7103"/>
  <path fill="#0072c6" d="M49.397 46.226v24.245c0 2.5152 5.6338 4.5271 12.575 4.5271v-28.773z"/>
  <path fill="#0072c6" d="M61.771 74.999h.2012c6.9416 0 12.575-2.012 12.575-4.5271v-24.245h-12.777z"/>
  <path fill="#fff" d="M61.771 74.999h.2012c6.9416 0 12.575-2.012 12.575-4.5271v-24.245h-12.777z" opacity=".15"/>
  <path fill="#fff" d="M74.547 46.226c0 2.5152-5.6338 4.5271-12.575 4.5271-6.9416 0-12.575-2.012-12.575-4.5271s5.6338-4.5271 12.575-4.5271c6.9416 0 12.575 2.012 12.575 4.5271"/>
  <path fill="#7fba00" d="M71.932 45.924c0 1.6097-4.5271 3.0182-9.9598 3.0182-5.4326 0-9.9598-1.3078-9.9598-3.0182 0-1.6096 4.5271-3.0181 9.9598-3.0181 5.4326 0 9.9598 1.4084 9.9598 3.0181"/>
  <path fill="#b8d432" d="M69.819 47.736c1.3078-.503 2.1127-1.1066 2.1127-1.8108 0-1.6096-4.5271-3.0182-9.9598-3.0182-5.5331 0-9.9598 1.3078-9.9598 3.0182 0 .7042.8048 1.3078 2.1127 1.8108 1.8108-.7042 4.7283-1.2072 7.9476-1.2072 3.0181 0 5.835.503 7.7464 1.2072"/>
  <path fill="#fff" d="M60.262 63.529h-4.7282l13.983-11.468-5.4324 8.8527h4.7282l-13.983 11.569z"/>
</svg>