<svg xmlns="http://www.w3.org/2000/svg" version="1.1" viewBox="0 0 100 100">
    <path d="M74.383 49.872c-.907-2.1499-2.7849-3.9698-5.2138-5.0828-1.12-3.7649-4.2538-7.5297-8.9276-7.5297-.149 0-.299.004-.451.011-1.9489-1.3979-3.8428-2.0789-5.7708-2.0789-1.162 0-2.3499.257-3.5409.764-.882-.462-1.8929-.703-2.9749-.703-2.3919 0-4.6608 1.105-6.0608 2.3989-.441-.104-.9-.156-1.3739-.156-3.5679 0-7.1037 2.948-8.0597 6.5217-3.0759 1.116-5.3218 3.143-6.3768 5.7808-1.023 2.559-.798 5.4198.617 7.8497 1.4059 2.413 3.8658 3.8538 6.5797 3.8538 1.041 0 2.0449-.213 2.9599-.622 1.6499 1.5 3.7729 2.397 5.7838 2.397.701 0 1.3719-.104 2.0069-.309 1.6279 1.3388 4.1228 1.8408 6.1478 1.8408 2.3889 0 4.4648-.631 5.8408-1.7329.892.413 1.8739.627 2.8989.627h.001c2.5629 0 5.2118-1.3659 6.6587-3.2649.807.331 1.6559.502 2.5149.502h.001c2.8009-.001 5.4018-1.8289 6.6257-4.6578.934-2.1589.974-4.3748.114-6.4097z" fill="#009580"/>
    <path d="M41.071 63.254v-8.8037c0-1.093-.889-1.9809-1.9809-1.9809h-3.2989v1.3999h3.2989c.32 0 .581.261.581.581v8.5687c.464.123.934.201 1.3999.235zm6.088-15.059h-4.4318c-.32 0-.581-.261-.581-.581V37.075c-.252.186-.488.378-.702.576a5.745 5.745 0 0 0-.698-.119v10.082c0 1.093.889 1.9809 1.981 1.9809h4.4318c.32 0 .58.26.58.58v3.2819h1.3999v-3.282c.001-1.092-.888-1.9798-1.98-1.9798zm18.644 5.598v-1.256h-1.4009v1.256c0 .32-.26.581-.58.581h-5.6118V44.333c0-1.092-.888-1.981-1.9809-1.981h-3.8168v1.4h3.8168c.32 0 .58.26.58.581v19.17c.453.11.922.174 1.3999.191v-7.9198h5.6108c1.094-.001 1.9829-.889 1.9829-1.9819z" fill="#fff"/>
    <path d="M48.44 59.249c-1.7199 0-3.1199-1.3999-3.1199-3.1199 0-1.7209 1.3999-3.1209 3.1199-3.1209 1.7209 0 3.1199 1.3999 3.1199 3.1209 0 1.7199-1.3999 3.1199-3.1199 3.1199zm0-4.9458c-1.006 0-1.8249.819-1.8249 1.8259 0 1.007.819 1.8259 1.8249 1.8259 1.007 0 1.8249-.819 1.8249-1.8259 0-1.007-.819-1.8259-1.8249-1.8259zM33.527 56.279c-1.7209 0-3.1199-1.3999-3.1199-3.1209 0-1.7209 1.3999-3.1199 3.1199-3.1199s3.1199 1.3999 3.1199 3.1199c0 1.7209-1.3989 3.1209-3.1199 3.1209zm0-4.9468c-1.007 0-1.8249.819-1.8249 1.8259 0 1.007.819 1.8259 1.8249 1.8259s1.8249-.819 1.8249-1.8259c.001-1.007-.818-1.8259-1.8249-1.8259zM65.114 53.3c-1.7209 0-3.1199-1.3999-3.1199-3.1199 0-1.7209 1.3999-3.1199 3.1199-3.1199 1.7199 0 3.1199 1.3999 3.1199 3.1199 0 1.7209-1.3999 3.1199-3.1199 3.1199zm0-4.9448c-1.007 0-1.8249.819-1.8249 1.8249 0 1.006.819 1.8259 1.8249 1.8259 1.006 0 1.8249-.819 1.8249-1.8259 0-1.007-.819-1.8249-1.8249-1.8249zM50.148 46.16c-1.7209 0-3.1199-1.3999-3.1199-3.1199 0-1.7209 1.3999-3.1199 3.1199-3.1199 1.7199 0 3.1199 1.3999 3.1199 3.1199.001 1.7199-1.3989 3.1199-3.1199 3.1199zm0-4.9458c-1.007 0-1.8249.819-1.8249 1.8259 0 1.006.819 1.8249 1.8249 1.8249 1.006 0 1.8249-.819 1.8249-1.8249.001-1.007-.818-1.8259-1.8249-1.8259z" fill="#fff"/>
</svg>
