<svg xmlns="http://www.w3.org/2000/svg" version="1.1" viewBox="0 0 100 100">
    <path d="M59.9 44.7H33.3c-1.1 0-2-.9-2-2s.9-2 2-2h26.6c1.1 0 2 .9 2 2s-.9 2-2 2zm-5.4 16.7H29.9c-1.1 0-2-.9-2-2s.9-2 2-2h24.6c1.1 0 2 .9 2 2s-.9 2-2 2zm-2.9-8.1H27c-1.1 0-2-.9-2-2s.9-2 2-2h24.6c1.1 0 2 .9 2 2s-.9 2-2 2z" fill="#7a7a7a"/>
    <path d="M75 57.1c0-2.4-1.9-4.3-4.2-4.3h-.6c.2-.9.4-1.9.4-3 0-6.2-5.1-11.2-11.2-11.2-4.9 0-9.1 3.3-10.6 7.6-.8-.2-1.6-.4-2.5-.4-4.3 0-7.6 3.5-7.6 7.8s3.4 7.8 7.6 7.8H71c2.3-.3 4-2.1 4-4.3" fill="#3999c6"/>
    <path d="M50.3 61.3c-1-1-1.8-2.2-2.1-3.8-.9-4.2 1.6-8.3 5.7-9.2.9-.2 1.7-.2 2.6-.1.3-3.9 2.7-7.3 6.3-9-1.1-.3-2.2-.6-3.4-.6-4.9 0-9.1 3.3-10.6 7.6-.8-.2-1.6-.4-2.5-.4-4.3 0-7.6 3.5-7.6 7.8s3.4 7.8 7.6 7.8z" fill="#fff" opacity=".2"/>
</svg>
