<svg xmlns="http://www.w3.org/2000/svg" version="1.1" viewBox="0 0 100 100">
  <path fill="#804998" d="M47.9 40.9l-7.7 3V31.5l7.7 2.7zm-14.6-7.3v8.1l5.7 2.2V31.6zm.6 7.5l-.3-.1v-6.7l.9-.3v7.3l-.3-.1zm1.5.4l-.4-.1v-7.5l1.2-.3v8.2l-.4-.1zm1.8.6l-.5-.2v-8.5l.5-.1.5-.2.6-.2v9.5l-.6-.2zm28.6-1.2l-7.7 3V31.5l7.7 2.7zm-14.6-7.3v8.1l5.7 2.2V31.6zm.6 7.5l-.3-.1v-6.7l.9-.3v7.3l-.3-.1zm1.5.4l-.4-.1v-7.5l1.2-.3v8.2l-.4-.1zm1.8.6l-.5-.2v-8.5l.5-.1.5-.2.6-.2v9.5l-.6-.2zm-7.2 23.4l-7.7 3V56.1l7.7 2.7zm-14.6-7.3v8.1l5.7 2.2V56.2zm.6 7.5l-.3-.1v-6.7l.9-.3v7.3l-.3-.1zm1.5.4L35 66v-7.5l1.2-.3v8.2l-.4-.1zm1.8.6l-.5-.2V58l.5-.1.5-.2.6-.2V67l-.6-.2zm28.6-1.2l-7.7 3V56.1l7.7 2.7zm-14.6-7.3v8.1l5.7 2.2V56.2zm.6 7.5l-.3-.1v-6.7l.9-.3v7.3l-.3-.1zm1.5.4l-.4-.1v-7.5l1.2-.3v8.2l-.4-.1zm1.8.6l-.5-.2V58l.5-.1.5-.2.6-.2V67l-.6-.2zm2.3-13.5l-7.6 2.9V43.8l7.6 2.7zm-14.6-7.4v8.1l5.7 2.2V43.8zm.6 7.5l-.3-.1v-6.7l.9-.3v7.3l-.3-.1zm1.5.5l-.4-.1v-7.5l1.2-.3v8.2l-.4-.1zm1.8.6l-.5-.2v-8.5l.5-.1.5-.2.6-.2v9.5l-.6-.2zm-7.1-1.2L32 56.1V43.8l7.6 2.7zM25 45.8v8.1l5.7 2.2V43.8zm.6 7.5l-.3-.1v-6.7l.9-.3v7.3l-.3-.1zm1.5.5l-.4-.1v-7.5l1.2-.3v8.2l-.4-.1zm1.8.6l-.5-.2v-8.5l.5-.1.5-.2.6-.2v9.5l-.6-.2zM75 53.2l-7.6 2.9V43.8l7.6 2.7z" class="st0"/>
  <path fill="#fff" d="M47.9 40.9l-7.7 3V31.5l7.7 2.7zm17.9 0l-7.7 3V31.5l7.7 2.7zM47.9 65.5l-7.7 3V56.1l7.7 2.7zm17.9 0l-7.7 3V56.1l7.7 2.7zm-8.4-12.3l-7.6 2.9V43.8l7.6 2.7zm-17.8 0L32 56.1V43.8l7.6 2.7zm35.4 0l-7.6 2.9V43.8l7.6 2.7z" opacity=".2"/>
  <path fill="#804998" d="M60.4 45.8v8.1l5.7 2.2V43.8zm.6 7.5l-.3-.1v-6.7l.9-.3v7.3l-.3-.1zm1.5.5l-.4-.1v-7.5l1.2-.3v8.2l-.4-.1zm1.8.6l-.5-.2v-8.5l.5-.1.5-.2.6-.2v9.5l-.6-.2z" class="st0"/>
</svg>