<svg xmlns="http://www.w3.org/2000/svg" version="1.1" viewBox="0 0 100 100">
  <path fill="#b8d432" d="M41.973 64.604c3.6042-2.5396 7.7417-5.9604 12.206-10.425 4.5854-4.5854 7.9562-8.6812 10.433-12.194-2.8333-5.1562-8.3125-8.6521-14.612-8.6521-9.2042 0-16.667 7.4625-16.667 16.667 0 6.2937 3.4896 11.769 8.6396 14.604zM58.598 58.598c-2.9792 2.9771-6.0167 5.6771-8.9958 8.0479.1333.0042.2646.0208.398.0208 9.2041 0 16.667-7.4625 16.667-16.667 0-.1354-.0167-.2645-.021-.3979-2.4374 3.0562-5.1603 6.1083-8.0478 8.9958z"/>
  <path fill="#0078d7" d="M73.785 26.215c-.7125-.7125-1.7479-1.05-3.0438-1.05-3.5479 0-9.0583 2.5521-15.233 6.9333.8104.252 1.6.5458 2.3604.902 5.5875-3.7937 10.217-5.752 12.875-5.752.5146 0 1.2062.077 1.5708.4396 1.9729 1.9729-2.0125 13.315-16.66 27.962-11.227 11.227-21.775 17.1-26.392 17.1-.5167 0-1.2062-.0771-1.5708-.4396-1.3042-1.3042.023-6.725 5.2958-14.477-.348-.75-.6375-1.5292-.8854-2.3292-5.9833 8.4312-8.5417 15.619-5.8833 18.279.7125.7125 1.7479 1.05 3.0438 1.05 5.8729 0 17.104-6.9521 27.865-17.71 13.133-13.135 20.592-26.973 16.658-30.908zM33.333 25c0 4.6021-3.7312 8.3333-8.3333 8.3333 4.6021 0 8.3333 3.7312 8.3333 8.3333 0-4.6021 3.7312-8.3333 8.3333-8.3333-4.6021 0-8.3333-3.7312-8.3333-8.3333zM68.75 62.5c0 3.4521-2.7979 6.25-6.25 6.25 3.4521 0 6.25 2.7979 6.25 6.25 0-3.4521 2.7979-6.25 6.25-6.25-3.4521 0-6.25-2.7979-6.25-6.25z"/>
  <path fill="#59b4d9" d="M42.998 52.488h-.6813c.0855-.3396.1271-.6813.1271-1.0625 0-2.5104-2.0417-4.55-4.55-4.55h-4.2562c-.1937 1.0125-.3041 2.0562-.3041 3.125 0 4.5083 1.7979 8.5896 4.7042 11.59h4.9604c2.5104 0 4.55-2.0417 4.55-4.55 0-2.5104-2.0417-4.5521-4.55-4.5521zM54.169 54.19l.0104-.0104c.6167-.6167 1.1917-1.2167 1.7646-1.8146-.777.3916-1.4062 1.0333-1.775 1.825zM58.598 58.598a110.4643 110.4643 0 0 1-5.8979 5.4833c.7.6937 1.6604 1.125 2.7167 1.125h1.3854c5.2479-2.3521 9.0542-7.3312 9.7417-13.271h-1.8146c-1.9229 2.2667-3.9812 4.5104-6.1312 6.6625zM51.377 48.404h8.1792c1.9958-2.3062 3.6646-4.4458 5.0458-6.4021-1.6646-3.025-4.2333-5.4854-7.3562-6.9958h-.9354c-1.7021 0-3.0625 1.3604-3.0625 3.0625 0 .2542.0417.552.127.8083h-1.9561c-2.6792 0-4.8062 2.1271-4.8062 4.7625s2.127 4.7646 4.7646 4.7646z"/>
</svg>