<svg xmlns="http://www.w3.org/2000/svg" version="1.1" viewBox="0 0 100 100">
    <path fill="#7fbb42" stroke-width="7.458" d="M37.041 40.936h4.7868v4.7868H37.041zm-3.795 12.979h4.7868v4.7868H33.246zm6.812 0h4.7868v4.7868H40.058zm6.744 0h4.7868v4.7868H46.802zm-13.556-6.489h4.7868v4.7868H33.246zm6.812 0h4.7868v4.7868H40.058z"/>
    <path fill="#3999c6" stroke-width="55.622" d="M62.5696 38.6295v-2.923L43.852 25.6909 25.0004 35.7066v2.923h3.8481v20.2326h3.218V38.6295h23.4371V57.575h3.5397V38.6295z"/>
    <path fill="#b8d433" opacity=".8" stroke-width="55.622" d="M41.8274 40.9357v4.7866h-.5497v-4.1698h-4.237v-.6168z"/>
    <path fill="#b8d433" opacity=".5" stroke-width="55.622" d="M37.0408 45.7223v-4.7866h.5497v4.1833h4.237v.6033z"/>
    <path fill="#b8d433" opacity=".8" stroke-width="55.622" d="M38.033 47.4252v4.7866h-.5363V48.042h-4.2504v-.6167z"/>
    <path fill="#b8d433" opacity=".5" stroke-width="55.622" d="M33.2463 52.2118v-4.7866h.5497v4.1698h4.237v.6168z"/>
    <path fill="#b8d433" opacity=".8" stroke-width="55.622" d="M44.871 47.4252v4.7866h-.5765V48.042h-4.237v-.6167z"/>
    <path fill="#b8d433" opacity=".5" stroke-width="55.622" d="M40.0576 52.2118v-4.7866h.5765v4.1698h4.237v.6168z"/>
    <path fill="#b8d433" opacity=".8" stroke-width="55.622" d="M38.033 53.9146v4.7867h-.5363V54.518h-4.2504v-.6034z"/>
    <path fill="#b8d433" opacity=".5" stroke-width="55.622" d="M33.2463 58.7013v-4.7867h.5497v4.17h4.237v.6167z"/>
    <path fill="#b8d433" opacity=".8" stroke-width="55.622" d="M44.871 53.9146v4.7867h-.5765V54.518h-4.237v-.6034z"/>
    <path fill="#b8d433" opacity=".5" stroke-width="55.622" d="M40.0576 58.7013v-4.7867h.5765v4.17h4.237v.6167z"/>
    <path fill="#b8d433" opacity=".8" stroke-width="55.622" d="M51.5885 53.9146v4.7867h-.5498V54.518h-4.2369v-.6034z"/>
    <path fill="#b8d433" opacity=".5" stroke-width="55.622" d="M46.8018 58.7013v-4.7867h.5497v4.17h4.237v.6167z"/>
    <path fill="#b8d433" opacity=".8" stroke-width="55.622" d="M41.8274 41.4184l-4.076 4.304h-.7106v-.5498l4.143-4.237h.6436zm3.0436 6.4894l-4.1028 4.304h-.7106v-.5497l4.1833-4.237h.6302zm-6.838 0l-4.076 4.304h-.7107v-.5497l4.143-4.237h.6437zm0 6.4895l-4.076 4.304h-.7107v-.5497l4.143-4.237h.6437zm6.838 0l-4.1028 4.304h-.7106v-.5497l4.1833-4.237h.6302zm6.7175 0l-4.076 4.304h-.7107v-.5497l4.143-4.237h.6437z"/>
    <path d="M53.359 49.544v20.837c0 2.1453 4.8538 3.9153 10.821 3.9153v-24.752z" fill="#3999c6"/>
    <path d="M64.019 74.309h.1609c5.9802 0 10.821-1.7699 10.821-3.9153v-20.85h-10.981z" fill="#5ab4d9"/>
    <path d="M75 49.544c0 2.1453-4.8538 3.9153-10.821 3.9153s-10.821-1.7565-10.821-3.9153 4.8538-3.9153 10.821-3.9153S75 47.3584 75 49.544" fill="#fff"/>
    <path d="M72.788 49.316c0 1.4079-3.8482 2.6012-8.6082 2.6012s-8.6082-1.1531-8.6082-2.6012c0-1.4079 3.8482-2.6012 8.6082-2.6012s8.6082 1.1665 8.6082 2.6012" fill="#7fbb42"/>
    <path d="M70.991 50.898c1.1263-.4559 1.7967-.9922 1.7967-1.5688 0-1.4079-3.8482-2.6012-8.6082-2.6012s-8.6082 1.1531-8.6082 2.6012c0 .6168.6704 1.1531 1.7967 1.5688 1.5688-.6168 4.0493-.9922 6.8115-.9922 2.7621-.0402 5.2293.3754 6.8115.9922" fill="#b8d433"/>
    <path d="M56.054 64.481v-1.4749c.2548.228.5497.3888.8716.5095.3217.0939.6435.161.9251.161.1877 0 .3486-.0269.4827-.0671.1341-.0268.2548-.067.3487-.1341.0938-.067.1608-.134.1877-.228.0268-.0938.067-.1608.067-.2547 0-.134-.0268-.2548-.0939-.3486-.067-.0939-.1609-.1877-.295-.295-.134-.0939-.295-.1609-.4558-.2548-.161-.067-.3487-.1609-.5766-.2547-.5095-.228-.8984-.4827-1.153-.7643-.2549-.3218-.389-.6704-.389-1.1263 0-.3486.0671-.6436.1878-.8715.134-.2548.3218-.456.5497-.6168s.5095-.295.8313-.3487c.3218-.067.6436-.0938.9923-.0938s.6436.0268.8983.067c.2548.0268.5095.0939.7375.1877v1.3811c-.0939-.067-.228-.134-.3486-.1877-.1207-.0536-.2548-.0938-.3889-.134-.134-.0269-.295-.0671-.4156-.094-.1341-.0267-.2548-.0267-.3889-.0267-.1609 0-.3218 0-.4559.0268-.134.0268-.2547.067-.3486.134-.0938.0671-.1609.1341-.228.1878-.067.0938-.067.1609-.067.2547 0 .0939.0269.1878.0939.295.067.0939.134.161.2548.2548.0938.067.2279.1609.3888.228.1609.067.3218.1608.5095.2279.2548.0938.5095.228.7107.3486.228.134.3888.2547.5497.4156s.2548.3218.3486.5498c.067.1877.1341.4156.1341.7106 0 .3487-.067.6705-.1877.9252-.134.2548-.3218.456-.5766.6168-.228.161-.5095.2548-.8313.3218-.3218.067-.6436.0939-.9922.0939s-.7107-.0268-1.0324-.0939c-.3352 0-.6168-.1073-.8447-.228zm8.313.389c-.9252 0-1.7029-.3218-2.3062-.9252-.5766-.6168-.8984-1.4079-.8984-2.4135 0-1.0324.295-1.8638.8984-2.5074.6168-.6436 1.3811-.9654 2.3733-.9654.9252 0 1.7029.3218 2.2794.9252.5766.6034.8716 1.4079.8716 2.4403s-.295 1.8638-.8984 2.5074l-.134.134 1.676 1.609H66.137l-.8715-.8983c-.2146.0536-.5364.0939-.8984.0939zm.067-5.5243c-.5095 0-.9251.1877-1.247.5766s-.4558.8983-.4558 1.542.1609 1.153.4558 1.542c.3218.3888.7107.5765 1.1933.5765.5096 0 .8984-.1877 1.2202-.5497.295-.3889.456-.8984.456-1.542 0-.6704-.161-1.2202-.456-1.609-.2681-.3486-.657-.5364-1.1665-.5364zm8.193 5.3903h-3.9153v-6.5835h1.4749v5.3634h2.4403z" fill="#fff"/>
</svg>
