<svg xmlns="http://www.w3.org/2000/svg" version="1.1" viewBox="0 0 100 100">
    <path d="M74.9 54.45v-12.1l-13.7 11.9h-.3v-11.9l-13.7 11.9v-24.9c0-2.1-4.7-4.2-10.9-4.2s-11.3 2-11.3 4.2v45.6h50zm-38.6-23.1c-4.5 0-8.1-1.1-8.1-2.3s3.6-2.3 8.1-2.3 8.1 1 8.1 2.3c-.1 1.2-3.7 2.3-8.1 2.3zm23.6 35.5h-5.5v-5.5h5.5zm-9.7 0h-5.5v-5.5h5.5zm14 0v-5.5h5.5v5.5z" fill="#59b4d9"/>
    <path fill="#3999c6" d="M25 29.05h11.1v45.9H25z"/>
    <path d="M47.1 29.05c0 2.2-5 4-11.1 4s-11-1.8-11-4 5-4 11.1-4 11 1.7 11 4" fill="#fff"/>
    <path d="M44.9 28.75c0 1.5-3.9 2.6-8.8 2.6s-8.8-1.1-8.8-2.6 3.9-2.6 8.8-2.6 8.8 1.2 8.8 2.6" fill="#7fba00"/>
    <path d="M43 30.35c1.2-.4 1.8-1 1.8-1.6 0-1.5-3.9-2.6-8.8-2.6s-8.8 1.2-8.8 2.6c.1.6.8 1.2 1.9 1.6 1.6-.6 4.1-1 7-1 2.8 0 5.3.4 6.9 1" fill="#b8d432"/>
</svg>
