<svg xmlns="http://www.w3.org/2000/svg" version="1.1" viewBox="0 0 100 100">
    <path d="M75 50.5c0-3.2-2.6-5.8-5.8-5.8h-.7c.4-1.3.5-2.7.5-4.1C69.1 32 62.1 25 53.6 25 46.8 25 41 29.4 39 35.6c-1.1-.4-2.2-.6-3.4-.6C29.7 35 25 39.8 25 45.7s4.7 10.6 10.5 10.6h34.1c3.1-.3 5.4-2.8 5.4-5.8" fill="#0072c6"/>
    <path d="M41.2 56.3c-1.4-1.4-2.4-3.2-2.9-5.2-1.3-5.7 2.2-11.4 7.9-12.7 1.2-.3 2.4-.3 3.5-.2.5-5.4 3.8-10.1 8.6-12.5-1.5-.4-3-.7-4.7-.7C46.8 25 41 29.4 39 35.6c-1.1-.4-2.2-.6-3.4-.6C29.7 35 25 39.8 25 45.7s4.7 10.6 10.5 10.6z" fill="#fff" opacity=".1"/>
    <path d="M71.3 71.3L60.8 53v-7.4h.2c1.3 0 2.3-1 2.3-2.3S62.2 41 61 41H49.4c-1.3 0-2.3 1-2.3 2.3s1 2.3 2.3 2.3h.2V53L39 71.3c-1.2 2-.2 3.7 2.1 3.7h28.1c2.4 0 3.3-1.6 2.1-3.7z" fill="#59b4d9"/>
    <path d="M62.6 63.5h-5c.1.3.2.6.2.9 0 1.2-1 2.1-2.1 2.1s-2.1-1-2.1-2.1c0-.3.1-.7.2-.9h-6.1L43.4 71H67z" fill="#804998"/>
    <path d="M55.7 66.5c1.2 0 2.1-1 2.1-2.1 0-.3-.1-.7-.2-.9h-3.8c-.1.3-.2.6-.2.9 0 1.2 1 2.1 2.1 2.1z" fill="#68217a"/>
    <circle cx="58.4" cy="68.2" r="1" fill="#68217a"/>
    <path d="M39 71.3L49.6 53v-7.4h-.2c-1.3 0-2.3-1-2.3-2.3s1-2.3 2.3-2.3h5v12l-5.6 22h-7.7c-2.3 0-3.2-1.6-2.1-3.7z" fill="#fff" opacity=".25"/>
</svg>
