<svg xmlns="http://www.w3.org/2000/svg" version="1.1" viewBox="0 0 100 100">
  <path fill="#b8d432" d="M55.83 47.5c0 .5-.3333.8333-.8333.8333h-6.5c-.5 0-.8334-.3333-.8334-.8333v-4.8333c0-.5.3334-.8333.8334-.8333h6.5c.5 0 .8333.3333.8333.8333zm11.67 5c0 .5-.3333.8333-.8333.8333h-6.5c-.5 0-.8334-.3333-.8334-.8333v-4.8333c0-.5.3334-.8333.8334-.8333h6.5c.5 0 .8333.3333.8333.8333zm-11.67 5c0 .5-.3333.8333-.8333.8333h-6.5c-.5 0-.8334-.3333-.8334-.8333v-4.8333c0-.5.3334-.8333.8334-.8333h6.5c.5 0 .8333.3333.8333.8333zm-11.66-15c0 .5-.3333.8333-.8333.8333H36.67c-.5 0-.8334-.3333-.8334-.8333v-5c0-.5.3334-.8333.8334-.8333h6.5c.6666 0 1 .3333 1 .8333z"/>
  <path fill="#0072c6" d="M73.333 25H26.666c-.5 0-.8333.3333-.8333.8333v10c0 .5.3333.8334.8333.8334h5c.5 0 .8333-.3334.8333-.8334v-4.1667h35v4.1667c0 .5.3334.8334 1 .8334h4.8333c.5 0 .8334-.3334.8334-.8334v-10c0-.5-.3334-.8333-.8334-.8333zm0 38.5h-4.8333c-.5 0-.8333.3333-.8333.8333v4h-35.167v-4.1667c0-.5-.3334-.8333-1-.8333h-4.8333c-.5 0-.8334.3333-.8334 1v9.8333c0 .5.3334.8333.8334.8333h46.667c.5 0 .8333-.3333.8333-.8333v-9.8333c0-.5-.3333-.8333-.8333-.8333z"/>
  <path fill="#b8d432" d="M44.17 52.5c0 .5-.3333.8333-.8333.8333H36.67c-.5 0-.8334-.3333-.8334-.8333v-5c0-.5.3334-.8333.8334-.8333h6.5c.6666 0 1 .3333 1 .8333zm0 10c0 .5-.3333.8333-.8333.8333H36.67c-.5 0-.8334-.3333-.8334-.8333v-5c0-.5.3334-.8333.8334-.8333h6.5c.6666 0 1 .3333 1 .8333z"/>
</svg>