<svg xmlns="http://www.w3.org/2000/svg" version="1.1" viewBox="0 0 100 100">
    <path fill="#3999c6" d="M74.6765 50.3118c.4686-.4685.3905-1.3276 0-1.7961l-2.4208-2.4209L61.479 35.6305c-.4686-.4685-1.1714-.4685-1.718 0-.4686.4686-.6248 1.3276 0 1.7961l11.3233 11.089c.4685.4686.4685 1.3277 0 1.7962L59.5267 61.7913c-.4686.4686-.4686 1.3276 0 1.7961s1.3275.3905 1.718 0L71.9433 52.967l.078-.078zM25.3224 50.3118c-.4686-.4685-.3905-1.3276 0-1.7961l2.4208-2.4209L38.52 35.6305c.4686-.4685 1.1714-.4685 1.718 0 .4686.4686.6248 1.3276 0 1.7961l-11.089 11.089c-.4686.4686-.4686 1.3277 0 1.7962l11.3233 11.4795c.4686.4686.4686 1.3276 0 1.7961s-1.3275.3905-1.718 0L27.8213 53.1231l-.078-.078z"/>
    <path fill="#fcd116" d="M38.7542 50.0775l9.9958.0781-7.8092 22.881 21.5534-30.534H52.0298l10.152-15.5403h-15.228z"/>
    <path fill="#ff8c00" d="M54.2164 26.9623l-8.434 19.2106 9.9958.0781-14.8374 26.7856 21.5534-30.534H52.0298l10.152-15.5403z" opacity=".3"/>
</svg>