<svg xmlns="http://www.w3.org/2000/svg" version="1.1" viewBox="0 0 100 100">
    <path d="M72.4 52.6c0-7.3-3.5-13.7-8.8-17.8v.7c0 2.2-.6 4.3-1.5 6.1 2.6 2.9 4.2 6.7 4.2 10.9 0 9-7.3 16.3-16.3 16.3s-16.3-7.3-16.3-16.3c0-4.5 1.8-8.5 4.7-11.5-.8-1.7-1.3-3.6-1.3-5.6 0-.4 0-.9.1-1.3-5.8 4-9.6 10.8-9.6 18.4C27.6 65 37.6 75 50 75s22.4-10 22.4-22.4z" fill="#7fba00"/>
    <path d="M50.3 25C44.6 25 40 29.6 40 35.3c0 4.7 3.1 8.6 7.4 9.9v10.2h-4.8v5.2h4.8v3.8h5.7V45.1c4.3-1.2 7.4-5.2 7.4-9.9C60.6 29.6 56 25 50.3 25zm0 5.4c2.7 0 4.9 2.2 4.9 4.9s-2.2 4.9-4.9 4.9-4.9-2.2-4.9-4.9 2.2-4.9 4.9-4.9z" fill="#fcd116"/>
</svg>
