<svg xmlns="http://www.w3.org/2000/svg" version="1.1" viewBox="0 0 100 100">
    <path fill="#3999c6" d="M65 37.364H29.444l-1.111 34.741L65 75l3.032-2.336 3.635-2.8-.002-.001-1.11-32.499h-2.523z"/>
    <path fill="#fff" opacity=".3" d="M65 75l3.032-5.655V37.364H65z"/>
    <path fill="#1e1e1e" opacity=".2" d="M68.032 69.345L65 75l3.032-2.336 3.635-2.8-3.612-.562z"/>
    <path d="M58.37 59.209c0-1.552-1.246-2.81-2.785-2.81-.116 0-.23.009-.34.024.17-.631.264-1.295.264-1.981 0-4.137-3.326-7.491-7.428-7.491-3.277 0-6.056 2.14-7.043 5.111-.52-.183-1.076-.286-1.658-.286-2.806 0-5.077 2.293-5.077 5.121 0 2.83 2.271 5.123 5.077 5.123 0 0 .005-.002.007-.002v.002h16.424l-.003-.014c1.433-.113 2.562-1.32 2.562-2.797" fill="#fff"/>
    <path d="M48.739 31.76c0-2.451 2.144-4.446 4.779-4.446s4.777 1.995 4.777 4.446v5.604h2.296V31.76c0-3.728-3.173-6.76-7.073-6.76-3.901 0-7.073 3.032-7.073 6.76v5.604h2.294z" fill="#a0a1a2"/>
    <path d="M41.702 31.76c0-2.451 2.144-4.446 4.779-4.446s4.779 1.995 4.779 4.446v5.604h2.294V31.76c0-3.728-3.173-6.76-7.073-6.76s-7.073 3.032-7.073 6.76v5.604h2.294z" fill="#7a7a7a"/>
</svg>
