<svg xmlns="http://www.w3.org/2000/svg" version="1.1" viewBox="0 0 100 100">
    <path d="M31 31.831v36.338C31 71.941 39.507 75 50 75V31.831z" fill="#0072c6"/>
    <path d="M49.74 74.999H50c10.493 0 19-3.057 19-6.831V31.831H49.74z" fill="#0072c6"/>
    <path d="M49.74 74.999H50c10.493 0 19-3.057 19-6.831V31.831H49.74z" fill="#fff" opacity=".15"/>
    <path d="M69 31.831c0 3.773-8.507 6.831-19 6.831s-19-3.059-19-6.831C31 28.058 39.507 25 50 25s19 3.058 19 6.831" fill="#fff"/>
    <path d="M65.115 31.438c0 2.491-6.768 4.507-15.115 4.507s-15.116-2.017-15.116-4.507S41.652 26.931 50 26.931s15.115 2.017 15.115 4.507" fill="#dd5900"/>
    <path d="M61.949 34.191c1.979-.762 3.168-1.716 3.168-2.752 0-2.491-6.768-4.508-15.116-4.508s-15.115 2.018-15.115 4.508c0 1.036 1.189 1.99 3.168 2.752 2.762-1.065 7.08-1.752 11.946-1.752 4.867 0 9.183.687 11.949 1.752" fill="#ff8c00"/>
    <path d="M34.947 58.582h2.403v-9.49l3.72 8.273c.439 1.001 1.04 1.356 2.218 1.356s1.756-.354 2.195-1.356l3.72-8.273v9.49h2.403v-9.474c0-.924-.37-1.371-1.132-1.602-1.825-.57-3.05-.077-3.605 1.155l-3.651 8.165-3.535-8.165c-.531-1.232-1.779-1.725-3.605-1.155-.763.231-1.132.678-1.132 1.602v9.474zm18.658-7.724h2.402v5.228c-.022.284.091.951 1.407.971.672.011 5.184 0 5.226 0v-6.225h2.408c.011 0-.002 8.489-.002 8.525.013 2.094-2.598 2.548-3.801 2.584h-7.588v-1.617c.013 0 7.582.002 7.601 0 1.547-.163 1.364-.932 1.364-1.191v-.63h-5.108c-2.376-.022-3.89-1.059-3.908-2.252-.001-.111.052-5.341-.001-5.393z" fill="#fff"/>
</svg>
