<svg xmlns="http://www.w3.org/2000/svg" version="1.1" viewBox="0 0 100 100">
    <path clip-rule="evenodd" fill="#59b4d9" fill-rule="evenodd" d="M30.062 46.694h3.3058v3.3058H30.062zm0 4.959h3.3058v3.3058H30.062zm0-6.612h3.3058v-2.9959c-1.2397.6198-2.2727 1.343-3.3058 2.1694zm4.959 16.633h3.3058v3.3058H35.021zm0 4.958h3.3058v3.3058H35.021zm0 5.062h3.3058v3.3058H35.021zm0-14.979h3.3058v3.3058H35.021zM25 51.653h3.3058v3.3058H25zm5.062 14.979h3.3058v3.3058H30.062zM25 61.674h3.3058v3.3058H25zm0-4.959h3.3058v3.3058H25zm5.062 15.702c1.0331.8265 2.1694 1.5496 3.3058 2.1694v-2.9959H30.062zM25.413 50h2.9959v-3.3058h-.8265c-.9297 1.0331-1.6529 2.0661-2.1694 3.3058zm4.649 11.674h3.3058v3.3058H30.062zm24.897 8.264h.8265c.8264-1.0331 1.5496-2.1694 2.1694-3.3058h-2.996zM35.021 51.653h3.3058v3.3058H35.021zM50 66.632h3.3058v3.3058H50z"/>
    <path d="M57.541 25c-9.6074 0-17.459 7.8512-17.459 17.459v17.459h17.459C67.1484 59.918 75 52.0668 75 42.459 75 32.8516 67.1488 25 57.541 25z" fill="#7fba00"/>
    <path fill="#68217a" d="M48.347 39.979h3.3058V50H48.347zm6.612 3.306h3.3058v6.7149H54.959zm6.715-6.611h3.3058V50H61.674z"/>
    <path d="M50 74.587c1.2397-.6198 2.2727-1.343 3.3058-2.1694v-.8264H50zm4.959-12.913h3.3058v3.3058H54.959zm-4.959 0h3.3058v3.3058H50zm-10.021 4.958h3.3058v3.3058H39.979z" clip-rule="evenodd" fill="#59b4d9" fill-rule="evenodd"/>
    <path clip-rule="evenodd" fill="#59b4d9" fill-rule="evenodd" stroke-width=".968" d="M38.327 41.633h-3.306v3.4091h3.306z"/>
    <path clip-rule="evenodd" fill="#59b4d9" fill-rule="evenodd" d="M45.041 66.632h3.3058v3.3058H45.041zm0 5.062h3.3058v3.3058H45.041zm-5.062-10.02h3.3058v3.3058H39.979z"/>
</svg>
