<svg xmlns="http://www.w3.org/2000/svg" version="1.1" viewBox="0 0 100 100">
  <path fill="#3999c6" d="M50.047 47.647c-.078 0-.15-.023-.22-.064l-14.711-8.49c-.14-.08-.223-.228-.223-.389 0-.156.083-.304.223-.382l14.616-8.435c.139-.077.309-.077.442 0l14.714 8.495c.133.078.221.224.221.382 0 .163-.088.308-.221.387l-14.619 8.433c-.069.04-.143.063-.222.063"/>
  <path fill="#59b4d9" d="M47.932 68.284c-.08 0-.158-.019-.226-.059l-14.664-8.464a.4363.4363 0 0 1-.226-.386V42.39c0-.159.084-.305.226-.389.134-.077.306-.077.448 0l14.662 8.464c.136.082.218.228.218.387v16.987c0 .163-.083.305-.218.386a.441.441 0 0 1-.22.059M52.081 68.284a.4737.4737 0 0 1-.226-.059.4442.4442 0 0 1-.22-.386V50.962c0-.159.084-.305.22-.387l14.66-8.461c.142-.078.308-.078.448 0 .134.08.22.227.22.385v16.877c0 .162-.085.306-.22.386l-14.665 8.464c-.061.04-.14.058-.217.058"/>
  <path fill="#fff" d="M52.081 68.284a.4737.4737 0 0 1-.226-.059.4442.4442 0 0 1-.22-.386V50.962c0-.159.084-.305.22-.387l14.66-8.461c.142-.078.308-.078.448 0 .134.08.22.227.22.385v16.877c0 .162-.085.306-.22.386l-14.665 8.464c-.061.04-.14.058-.217.058" opacity=".5"/>
  <path fill="#7a7a7a" d="M34.558 70.171c-.247 0-.497-.063-.726-.195l-6.845-3.952C25.835 65.358 25 63.911 25 62.582V37.418c0-1.329.835-2.777 1.987-3.441l6.845-3.952c.697-.401 1.586-.163 1.987.532.402.696.163 1.585-.532 1.987l-6.845 3.952c-.243.141-.532.641-.532.922v25.164c0 .281.289.782.532.922l6.845 3.952c.696.402.934 1.291.532 1.987-.269.467-.758.728-1.261.728zM65.442 29.829c.247 0 .497.063.726.195l6.845 3.952c1.152.666 1.987 2.113 1.987 3.442v25.164c0 1.329-.835 2.777-1.987 3.441l-6.845 3.952c-.697.401-1.586.163-1.987-.532-.402-.696-.163-1.585.532-1.987l6.845-3.952c.243-.141.532-.641.532-.922V37.418c0-.281-.289-.782-.532-.922l-6.845-3.952c-.696-.402-.934-1.291-.532-1.987.269-.467.758-.728 1.261-.728z"/>
</svg>