<svg xmlns="http://www.w3.org/2000/svg" version="1.1" viewBox="0 0 100 100">
  <path fill="#7fba00" d="M62.858 30.96C51.842 29.745 49.999 25 49.999 25s-2.479 6.242-18.326 6.242v25.611c0 3.097 1.721 5.997 4.104 8.532C41.179 71.133 50 75.001 50 75.001s18.327-8.029 18.327-18.149v-25.61c-2.038 0-3.851-.103-5.469-.282z"/>
  <path fill="#b8d432" d="M54.533 41.543l8.325-10.583C51.842 29.745 49.999 25 49.999 25s-2.479 6.242-18.326 6.242v25.611c0 3.097 1.721 5.997 4.104 8.532l6.154-7.822z" opacity=".4"/>
  <path fill="#fff" d="M57.268 49.46h-1.066v-3.552c0-1.709-.629-3.276-1.669-4.45-.039-.043-.074-.09-.112-.133-1.107-1.186-2.683-1.948-4.422-1.947-1.736-.001-3.312.761-4.419 1.947-1.11 1.187-1.783 2.811-1.783 4.582v3.553h-1.065c-.443 0-.801.359-.801.801v9.392c0 .442.359.801.801.801h14.536c.442 0 .801-.359.801-.801v-9.391a.801.801 0 0 0-.801-.802zm-4.011.001h-5.02l.001-.001h-1.495v-3.552c0-1.022.386-1.927.988-2.57.605-.643 1.395-1.013 2.268-1.013.874 0 1.665.37 2.27 1.013.143.153.271.323.389.504l-.001.001c.373.579.6 1.288.6 2.064z"/>
</svg>