<svg xmlns="http://www.w3.org/2000/svg" version="1.1" viewBox="0 0 100 100">
    <path d="M25.833 25c-.5 0-.833.333-.833.833v10c0 .5.333.833.833.833h5c.5 0 .833-.333.833-.833v-4.166h36.667v4.167c0 .5.333.833 1 .833h4.833c.5 0 .833-.333.833-.833v-10c.001-.501-.332-.834-.832-.834zm48.334 50c.5 0 .833-.333.833-.833v-9.833c0-.5-.333-.833-.833-.833h-4.833c-.5 0-.833.333-.833.833v4H31.667v-4.167c0-.5-.333-.833-1-.833h-4.834c-.5 0-.833.333-.833 1v9.833c0 .5.333.833.833.833z" fill="#0072c6"/>
    <path d="M54.857 51.098C53.56 52.395 51.835 53.11 50 53.11s-3.56-.714-4.858-2.012l-9.309-9.309v18.923h28.333V41.788z" fill="#59b4d9"/>
    <path d="M50 51.728c1.466 0 2.844-.571 3.88-1.607l10.286-10.286v-.545H35.833v.546L46.119 50.12c1.037 1.037 2.415 1.608 3.881 1.608z" fill="#59b4d9"/>
</svg>
