<svg xmlns="http://www.w3.org/2000/svg" version="1.1" viewBox="0 0 100 100">
  <path fill="#0072c6" d="M31.139 31.83v36.338c0 3.7725 8.4447 6.8316 18.861 6.8316v-43.169H31.139z"/>
  <path fill="#0072c6" d="M49.741 74.998h.2586c10.416 0 18.861-3.0571 18.861-6.8306v-36.338h-19.119z"/>
  <path fill="#fff" d="M49.741 74.998h.2586c10.416 0 18.861-3.0571 18.861-6.8306v-36.338h-19.119z" opacity=".15"/>
  <path fill="#fff" d="M68.861 31.83c0 3.7725-8.4447 6.8306-18.861 6.8306S31.139 35.6025 31.139 31.83 39.5837 24.9994 50 24.9994s18.861 3.0581 18.861 6.8306"/>
  <path fill="#7fba00" d="M65.005 31.436c0 2.4905-6.7179 4.5071-15.005 4.5071s-15.006-2.0166-15.006-4.5071c0-2.4895 6.7189-4.5071 15.006-4.5071s15.005 2.0176 15.005 4.5071"/>
  <path fill="#b8d432" d="M61.861 34.19c1.9643-.7618 3.1446-1.7157 3.1446-2.7522 0-2.4905-6.7179-4.5081-15.006-4.5081-8.2867 0-15.005 2.0176-15.005 4.5081 0 1.0365 1.1804 1.9904 3.1446 2.7522 2.7431-1.0646 7.0299-1.7519 11.86-1.7519 4.8311 0 9.1159.6873 11.861 1.7519"/>
  <path fill="#fff" d="M44.01 57.053c0 1.129-.4096 2.0035-1.2287 2.6234s-1.9502.9298-3.3942.9298c-1.2287 0-2.2551-.2214-3.0802-.6641v-2.6566c.952.808 2.0005 1.2126 3.1456 1.2126.5535 0 .9811-.1107 1.283-.3321s.4528-.5142.4528-.8805c0-.3592-.1449-.6722-.4357-.9378-.2908-.2657-.8815-.6088-1.7721-1.0294-1.8153-.8514-2.723-2.0146-2.723-3.4858 0-1.0677.3955-1.924 1.1874-2.569.791-.644 1.8425-.967 3.1537-.967 1.1623 0 2.1243.1529 2.889.4568v2.4815c-.802-.5535-1.7157-.8302-2.7391-.8302-.5142 0-.9207.1087-1.2196.327-.2989.2194-.4478.5112-.4478.8755 0 .3763.1198.6853.3613.9258.2405.2405.7345.5383 1.4812.8925 1.1129.5263 1.9049 1.0596 2.3788 1.602.4709.5434.7074 1.2186.7074 2.0256zm12.807-2.689c0 1.3997-.319 2.6153-.955 3.6437-.637 1.0294-1.5326 1.7509-2.6888 2.1665l3.4525 3.1959H53.14l-2.4654-2.7642c-1.0566-.0382-2.0105-.318-2.8598-.8382-.8493-.5193-1.5054-1.2327-1.9673-2.1373s-.6933-1.914-.6933-3.026c0-1.2336.2506-2.3335.7507-3.2995.5011-.966 1.2045-1.7087 2.1122-2.229.9076-.5192 1.9472-.7798 3.1215-.7798 1.0948 0 2.076.2516 2.9424.7557.8654.5032 1.5376 1.2196 2.0166 2.1494.48.9298.7195 1.9844.7195 3.1627zm-2.8216.15c0-1.2066-.2626-2.1596-.789-2.8599-.5262-.7003-1.2447-1.0506-2.1584-1.0506-.9298 0-1.6734.3512-2.233 1.0536-.5584.7034-.8381 1.6382-.8381 2.8055 0 1.1623.2737 2.09.821 2.7844.5485.6944 1.275 1.0415 2.1827 1.0415.9247 0 1.6573-.336 2.1997-1.0083.5434-.6711.815-1.5939.815-2.7663zM58.784 48.498h2.6808v9.7279h4.4076v2.1746H58.784z"/>
</svg>