<svg xmlns="http://www.w3.org/2000/svg" version="1.1" viewBox="0 0 100 100">
  <path fill="#7fba00" d="M59.5 25l-9.9.4-20.7 20.7 14.7 14.7 20.7-20.7.8-9.5zm.8 7.7c-.8.8-2.1.8-2.9 0-.8-.8-.8-2.1 0-2.9.8-.8 2.1-.8 2.9 0 .8.8.8 2.1 0 2.9z"/>
  <path fill="#fff" d="M46.9 57.5V28.1l-18 18 14.7 14.7z" opacity=".1"/>
  <path fill="#1e1e1e" d="M61.5 28.6c-1.5-1.5-3.8-1.5-5.3 0s-1.5 3.8 0 5.3 3.8 1.5 5.3 0 1.5-3.9 0-5.3zm-1.2 4.1c-.8.8-2.1.8-2.9 0-.8-.8-.8-2.1 0-2.9.8-.8 2.1-.8 2.9 0 .8.8.8 2.1 0 2.9z" opacity=".3"/>
  <path fill="#3999c6" d="M62.5 32.1l-9.9.4-20.7 20.7 14.7 14.7 20.7-20.7.8-9.5zm.8 7.7c-.8.8-2.1.8-2.9 0-.8-.8-.8-2.1 0-2.9.8-.8 2.1-.8 2.9 0 .8.8.8 2.1 0 2.9z"/>
  <path fill="#fff" d="M49.9 64.6V35.2l-18 18 14.7 14.7z" opacity=".1"/>
  <path fill="#1e1e1e" d="M64.5 35.7c-1.5-1.5-3.8-1.5-5.3 0s-1.5 3.8 0 5.3 3.8 1.5 5.3 0 1.5-3.8 0-5.3zm-1.2 4.1c-.8.8-2.1.8-2.9 0-.8-.8-.8-2.1 0-2.9.8-.8 2.1-.8 2.9 0 .8.8.8 2.1 0 2.9z" opacity=".3"/>
  <path fill="#804998" d="M65.5 39.2l-9.9.4-20.7 20.7L49.6 75l20.7-20.7.8-9.5zm.8 7.7c-.8.8-2.1.8-2.9 0-.8-.8-.8-2.1 0-2.9.8-.8 2.1-.8 2.9 0 .8.8.8 2.1 0 2.9z"/>
  <path fill="#fff" d="M52.9 71.7V42.3l-18 18L49.6 75z" opacity=".1"/>
  <path fill="#1e1e1e" d="M67.5 42.8c-1.5-1.5-3.8-1.5-5.3 0s-1.5 3.8 0 5.3 3.8 1.5 5.3 0 1.5-3.8 0-5.3zm-1.2 4.1c-.8.8-2.1.8-2.9 0-.8-.8-.8-2.1 0-2.9.8-.8 2.1-.8 2.9 0 .8.8.8 2.1 0 2.9z" opacity=".3"/>
</svg>