<svg xmlns="http://www.w3.org/2000/svg" version="1.1" viewBox="0 0 100 100">
    <path fill="#804998" d="M60.368 25H39.662L25 40.029v20.397L39.632 75h20.736L75 60.5V39.588z"/>
    <path d="M59.538 27h-19.05L27 40.827v18.765L40.462 73h19.077L73 59.66V40.421zm-1.135 43.24h-.152l-11.28-11.446 2.382-2.662h-8.177v8.382l2.677-2.882 8.868 8.608H41.602L29.76 58.446V41.95l3.322-3.406 8.829 7.955-5.029 5.221h16.059V35.765L47.691 41l-8.885-8.323 2.846-2.917h16.745L70.24 41.567v14.745l-5.622-5.298 4.118-3.706H57.353v10.75l3.72-3.691 6.368 6.915z" fill="#fff" opacity=".8"/>
    <path fill="#fff" opacity=".2" d="M39.662 25L25 40.029v20.398l7.503 7.472 35.393-35.393L60.368 25z"/>
</svg>
