<svg xmlns="http://www.w3.org/2000/svg" version="1.1" viewBox="0 0 100 100">
    <path d="M57.425 63.459H43.829c1.634 5.7679-.561 6.5949-10.175 6.5949v3.0199h32.691v-3.0199c-9.6138 0-10.557-.824-8.9208-6.5949" fill="#7a7a7a"/>
    <path d="M71.979 26.926H27.718c-1.504 0-2.7169 1.345-2.7169 2.8469v30.865c0 1.493 1.213 2.8229 2.7169 2.8229h44.261c1.501 0 3.0209-1.33 3.0209-2.8229v-30.865c0-1.506-1.52-2.8469-3.0209-2.8469" fill="#a0a1a2"/>
    <path d="M72.01 26.929c-.011 0-.021-.002-.031-.002H27.717c-1.504 0-2.7169 1.344-2.7169 2.8469v30.864c0 1.494 1.213 2.8239 2.7169 2.8239h1.053z" fill="#fff" opacity=".2"/>
    <path fill="#59b4d9" d="M71.097 30.7739v28.8404H28.79V30.774z"/>
    <path fill="#59b4d9" d="M28.848 30.7749l38.6791-.058h.002l-38.7392.058v28.8394h.058z"/>
    <path fill="#a0a1a2" d="M33.655 70.053h32.691v3.0209H33.655z"/>
    <path d="M50.517 29.021c0 .392-.318.71-.71.71a.7087.7087 0 0 1-.709-.71c0-.393.316-.71.709-.71.392 0 .71.317.71.71" fill="#b8d432"/>
    <path d="M50.545 44.32c-.045 0-.091-.014-.134-.038l-8.8038-5.0819a.2708.2708 0 0 1-.132-.231c0-.095.051-.183.132-.23l8.7508-5.0489a.2679.2679 0 0 1 .263 0l8.8068 5.0839c.082.047.131.135.131.23 0 .096-.049.183-.131.23L50.68 44.282c-.043.024-.086.038-.135.038" fill="#fff"/>
    <path d="M49.281 56.671c-.05 0-.095-.012-.134-.036l-8.7778-5.0659a.2602.2602 0 0 1-.136-.231v-10.166c0-.096.051-.183.136-.231.081-.049.181-.049.268 0l8.7768 5.0639c.078.05.13.137.13.233v10.166c0 .097-.052.183-.13.231a.2802.2802 0 0 1-.133.036" fill="#fff" opacity=".7"/>
    <path d="M51.765 56.671a.2872.2872 0 0 1-.138-.036.2709.2709 0 0 1-.129-.231V46.302c0-.094.051-.182.129-.231l8.7768-5.0639c.084-.048.182-.048.264 0 .084.047.135.135.135.23v10.101c0 .098-.051.184-.135.231L51.894 56.635c-.036.024-.083.036-.129.036" fill="#fff" opacity=".4"/>
</svg>
