<svg xmlns="http://www.w3.org/2000/svg" version="1.1" viewBox="0 0 100 100">
    <path d="M65.278 37.658c-.012 0-.023.002-.0351.002-.3625-6.9819-6.1064-12.535-13.16-12.535-5.1546 0-9.6074 2.9699-11.778 7.2912-.9026-.2078-1.8394-.3283-2.8052-.3283-6.9036 0-12.5 5.6114-12.5 12.533 0 6.9207 5.5964 12.532 12.5 12.532h27.778c5.3695 0 9.7219-4.3645 9.7219-9.748s-4.3524-9.747-9.722-9.747z" fill="#59b4d9"/>
    <path d="M65.278 37.658c-.012 0-.023.002-.0351.002-.3625-6.9819-6.1064-12.535-13.16-12.535-5.1546 0-9.6074 2.9699-11.778 7.2912-.9026-.2078-1.8394-.3283-2.8052-.3283-6.9036 0-12.5 5.6114-12.5 12.533 0 6.9207 5.5964 12.532 12.5 12.532h27.778c5.3695 0 9.7219-4.3645 9.7219-9.748s-4.3524-9.747-9.722-9.747z" fill="#fff" opacity=".2"/>
    <path d="M37.5 57.153h15.512V42.617c0-1.3956-1.1506-2.5321-2.5663-2.5321h-13.944c-1.4157 0-2.5663 1.1365-2.5663 2.5321v14.012c1.1305.3363 2.3253.5241 3.5643.5241z" fill="#fff" opacity=".4" stroke-width=".996"/>
    <path d="M52.008 70.684c0 .8444-.6988 1.5291-1.5622 1.5291h-13.944c-.8635 0-1.5622-.6847-1.5622-1.5291V42.618c0-.8444.6988-1.5291 1.5622-1.5291h13.944c.8635 0 1.5622.6847 1.5622 1.5291z" fill="#7a7a7a" stroke-width=".996"/>
    <path d="M37.15 58.157c0-1.0612.8604-1.9227 1.9227-1.9227h8.8032c1.0612 0 1.9227.8604 1.9227 1.9227 0 1.0612-.8604 1.9227-1.9227 1.9227h-8.8032c-1.0612 0-1.9227-.8604-1.9227-1.9227z" fill="#1e1e1e"/>
    <circle cx="39.458" cy="58.157" r="1.2902" fill="#b8d432"/>
    <path d="M37.15 52.133c0-1.0612.8604-1.9227 1.9227-1.9227h8.8032c1.0612 0 1.9227.8604 1.9227 1.9227 0 1.0612-.8604 1.9227-1.9227 1.9227h-8.8032c-1.0612 0-1.9227-.8615-1.9227-1.9227z" fill="#1e1e1e"/>
    <circle cx="39.458" cy="52.133" r="1.2902" fill="#b8d432"/>
    <path d="M37.15 46.109c0-1.0612.8604-1.9227 1.9227-1.9227h8.8032c1.0612 0 1.9227.8604 1.9227 1.9227 0 1.0612-.8604 1.9227-1.9227 1.9227h-8.8032c-1.0612 0-1.9227-.8604-1.9227-1.9227z" fill="#1e1e1e"/>
    <circle cx="39.458" cy="46.109" r="1.2902" fill="#b8d432"/>
    <path d="M58.534 52.944h-9.5382v18.46c0 1.9006 4.2008 3.4428 9.4076 3.4679v.002h.1135c.006 0 .011.001.017.001v-.001c5.2671 0 9.5382-1.5532 9.5382-3.4699v-18.46z" fill="#59b4d9" stroke-width=".996"/>
    <path d="M58.404 74.874c5.2671 0 9.6677-1.5532 9.6677-3.4699v-18.46l-9.6687.251z" fill="#3999c6" stroke-width=".996"/>
    <path d="M68.072 52.944c0 1.9167-4.2711 3.7209-9.5382 3.7209s-9.5382-1.8052-9.5382-3.7209c0-1.9167 4.2711-3.4699 9.5382-3.4699s9.5382 1.5532 9.5382 3.4699" fill="#fff" stroke-width=".996"/>
    <path d="M66.122 52.9c0 1.1787-3.3976 2.1335-7.5884 2.1335-4.1908 0-7.5884-.9548-7.5884-2.1335s3.3976-2.1335 7.5884-2.1335c4.1908 0 7.5884.9548 7.5884 2.1335" fill="#59b4d9" stroke-width=".996"/>
</svg>
