<svg xmlns="http://www.w3.org/2000/svg" version="1.1" viewBox="0 0 100 100">
  <path fill="#59b4d9" d="M45.418 57.62h-8.8645c-4.3825 0-7.9681-3.5857-7.9681-8.0677s3.3865-8.0677 7.9681-8.0677c.7968 0 1.6932.1992 2.6892.2988l1.6932.498.498-1.6932c1.5936-5.1793 6.5737-8.3665 12.251-8.3665 6.8725 0 12.151 5.279 12.151 12.151 0 1.0956-.1992 2.1912-.498 3.287l-.6972 2.49 2.6892-.2989h.498c1.992 0 3.5857 1.6932 3.5857 3.5857 0 1.8924-1.3944 3.2869-3.0876 3.5857h-8.8645c-.2988-2.49-1.5936-4.6813-3.2869-6.3745-2.1912-2.1912-5.1793-3.4861-8.2669-3.4861-2.1912 0-4.3825.5976-6.0757 1.6932l1.8924 2.988c1.3944-.7968 2.7888-1.0956 4.3825-1.0956 2.1912 0 4.3825.7968 5.7769 2.49 1.5936 1.5936 2.49 3.5857 2.49 5.7769s-.7968 4.3825-2.49 5.7769c-1.5936 1.6932-3.5857 2.49-5.7769 2.49-1.5936 0-3.0876-.498-4.3825-1.3944l-1.8924 2.988c1.8924 1.0956 4.0837 1.8924 6.0757 1.8924 3.0876 0 6.0757-1.0956 8.2669-3.3865 1.8924-1.8924 2.988-4.3825 3.2869-6.9721h9.2629c3.5857-.2988 6.2749-3.3865 6.2749-7.1713 0-2.988-2.7888-5.7769-6.0757-6.3745.1992-.5976.1992-.8964.1992-1.8924 0-8.7649-6.1753-15.737-16.036-15.737-6.2749 0-11.853 3.5857-14.143 9.3625-.7968 0-1.3944-.2988-2.2908-.2988C30.1789 38.1973 25 43.1774 25 49.5519c0 6.2749 5.1793 11.255 11.355 11.255h9.761z"/>
  <circle cx="47.709" cy="58.914" r="5.5777" fill="#68217a"/>
</svg>
