<svg xmlns="http://www.w3.org/2000/svg" version="1.1" viewBox="0 0 100 100">
  <path fill="#0078d7" d="M63.1946 67.3273c-3.9567 3.0487-8.5983 4.4969-13.2146 4.4969-6.5946 0-12.9356-2.9217-17.2982-8.6128-7.254-9.5274-5.4278-23.1453 4.0836-30.437 3.9568-3.0488 8.5984-4.497 13.2146-4.497 6.5947 0 12.9356 2.9218 17.2982 8.6129 7.2795 9.5274 5.4279 23.1707-4.0836 30.437zm6.62-32.5458C64.9194 28.3028 57.3863 25 50.0054 25c-5.2757 0-10.7036 1.7277-15.193 5.1575-10.9572 8.4604-13.0878 24.0854-4.6163 35.061C35.0914 71.6971 42.4723 75 50.0054 75c5.2757 0 10.7036-1.7276 15.193-5.1575 10.9572-8.3333 13.0624-24.0854 4.6162-35.061z"/>
  <path fill="#0078d7" d="M38.6774 54.6833c-1.4458-1.4483-2.6379-2.7694-3.5763-4.0905-2.1052 4.2429-2.7647 8.6128-3.0437 12.1697.2536.254.2536.5335.4058.7876 1.0653 1.3212 2.3842 2.6423 3.5763 3.5823 0-2.9217.2537-7.6982 2.6379-12.4492zm7.6863-16.8022c-1.9784 1.3211-3.9568 3.0488-6.0874 5.2846-1.0653 1.194-2.1052 2.3882-2.9168 3.5823.913 1.4482 1.9784 2.9217 3.4241 4.3699 1.0653-1.4482 2.3842-3.0488 3.9568-4.497 1.9784-1.8546 3.83-3.4298 5.6815-4.624-1.2936-1.321-2.7393-2.7947-4.0582-4.1158zm20.7102-1.2788c-.913-1.1941-1.8515-2.2357-3.0436-3.1758-3.2973-.5335-8.7506-.4319-14.6857 2.7439 1.3189 1.4482 2.7646 2.9217 4.0836 4.0904 7.9135-4.3445 13.6457-3.6585 13.6457-3.6585zm-31.8808 13.809c.6595-1.194 1.319-2.3881 2.1052-3.7093-3.424-5.437-3.2973-9.9339-2.9168-12.0427-.7863.9147-1.7248 1.8547-2.3842 2.7693-.6341 3.0742-.6341 7.5712 3.1958 12.9828zm9.7584 4.555c-1.598-1.3211-2.9169-2.5152-4.0836-3.7093-.7863 1.194-1.4458 2.2611-2.1052 3.4298 1.0653 1.0671 2.3842 2.2612 3.83 3.3029 8.852 7.0122 17.704 7.6727 22.726 7.6727.2536 0 1.8516-2.1087 2.7647-3.4298-2.2828.5335-11.7943 1.7276-23.132-7.2663z"/>
  <path fill="#0078d7" d="M35.1631 50.4392c.913 1.3212 2.1052 2.7693 3.5763 4.0904.5326-1.194 1.192-2.2611 2.1052-3.4298-1.4457-1.4482-2.511-2.9218-3.4241-4.37-.9131 1.3212-1.598 2.5153-2.2574 3.7094zm15.2514-8.4248c8.1926 7.5457 17.704 13.8974 20.215 15.625.2537-.6606.406-1.1941.5327-1.8547-2.6378-1.9817-9.5115-7.2662-17.8308-15.625-.8116.5336-1.877.8893-2.9169 1.8547zm-.9358-5.9015c-1.9784-2.1087-4.0836-4.4715-6.2142-6.8597-.913.254-1.9784.6606-2.9168 1.194 1.4457 2.5153 3.7031 5.1068 5.9351 7.495 1.2175-.6606 2.156-1.2957 3.1959-1.8293z"/>
  <path fill="#0078d7" d="M49.4744 36.106c-1.0653.5335-2.2827 1.0417-3.1958 1.8293 1.3189 1.3211 2.6886 2.7439 4.1343 4.065 1.0653-.6606 1.953-1.1941 3.0183-1.7276-1.319-1.2958-2.511-2.6931-3.9568-4.1667zm10.581 11.2231c-1.9784 1.6006-2.3842 4.497-.913 6.4787 1.5979 2.1087 4.4893 2.3882 6.5945.9146 1.9784-1.6006 2.3842-4.497.9131-6.6057-1.5725-1.9817-4.464-2.3628-6.5946-.7876zm-9.637 11.727c-1.8516 1.4482-2.2575 4.2429-.7863 6.0975 1.4457 1.8547 4.2357 2.2612 6.0873.7876 1.8516-1.4481 2.2574-4.0904.7863-6.0975-1.4458-1.9817-4.109-2.2358-6.0874-.7876zM34.2497 45.2824c-2.9169 2.2612-3.4242 6.3516-1.1921 9.2734 2.2574 2.9217 6.341 3.4299 9.2578 1.194 2.9169-2.2357 3.4241-6.3515 1.1921-9.2733-2.2574-2.9217-6.4932-3.4553-9.2578-1.1941z"/>
</svg>