<svg xmlns="http://www.w3.org/2000/svg" version="1.1" viewBox="0 0 100 100">
    <path d="M62.614 25.001H37.2772c-2.2422.1121-2.2422.5606-2.2422 3.2512V71.751c0 2.6906 0 3.139 2.2422 3.2512H62.726c2.2422-.1121 2.2422-.5606 2.2422-3.2512V28.2522c-.112-2.5785-.112-3.139-2.3543-3.2512zm-16.1438 1.6817h7.063c.112 0 .2241.1121.2241.2242s-.112.2242-.2242.2242h-7.063c-.112 0-.2241-.112-.2241-.2242 0 0 0-.2242.2242-.2242zm.1121 45.7409h-1.6817c-.3363 0-.5605-.1121-.5605-.4485s.2242-.4484.5605-.4484h1.6817c.3363 0 .5605.1121.5605.4484s-.2242.4485-.5605.4485zm4.5965.3363h-2.3543c-.3363 0-.6727-.1121-.6727-.5605 0-.3364.3364-.5606.6727-.5606h2.3543c.3363 0 .6727.1121.6727.5605 0 .3364-.3364.5606-.6727.5606zm3.8117-.3363H53.309c-.3363 0-.5606-.1121-.5606-.3364 0-.3363.2243-.3363.5606-.3363h1.6816c.3364 0 .5606.1121.5606.3363s-.2242.3364-.5606.3364zm7.7356-5.045c0 2.2422-.2242 2.8028-2.3543 2.8028H39.5194c-2.1301 0-2.3543-.5606-2.3543-2.8028V31.2792c0-2.3543.2242-2.3543 2.5785-2.3543h20.404c2.3543 0 2.6907 0 2.6907 2.3543z"/>
    <path d="M61.2687 32.7366c0-2.3543-.3363-2.3543-2.5785-2.3543H41.201c-2.3543 0-2.5785 0-2.5785 2.3543v33.1846c0 2.3543.2242 2.6906 2.5785 2.6906h17.4892c2.3543 0 2.5785-.4484 2.5785-2.6906zm-11.9958 24.44l-7.175-4.148v-8.2962l7.175 4.148zm-6.5023-13.6774l7.175-4.148 7.175 4.148-7.175 4.2602zm15.0227 9.5293l-7.175 4.1481v-8.2961l7.175-4.1481z"/>
</svg>