<svg xmlns="http://www.w3.org/2000/svg" version="1.1" viewBox="0 0 100 100">
    <path d="M42.778 42.778V55l7.7778-3.3333v-13.333zm6.6667-1.3422v8.4856l-1.6667.7544v-7.2256l-2.2222 1.2033v7.0533l-1.6667.6745v-7.9367l3.8889-2.1067v-.01zM50.556 38.333v13.333L75 56.9438v-9.7222zm22.222 11.111v5.5556l-1.6167-.4456v-5.7778l-2.8278-.8877v6l-1.6167-.4456v-6.2222l-2.8278-.8878v6.4444l-1.6167-.4455V45.665l-2.8278-.8878v6.8889l-1.6167-.4456v-7.111l-3.11-.9923.0055 7.3744-1.9456-.4922v-8.6667l10 3.5 4.2856 1.5 1.27.4444 4.4444 1.5556zM50.556 53.889v17.778L75 66.1114v-7.5zm22.222 11.01l-1.6156.2711v-4.8233l-2.8289-.3722v5.8344l-1.6156.2711v-6.3133l-2.8289-.3744v7.3244l-1.6156.271v-7.8043l-2.8289-.3723v8.8156l-1.6156.2712v-9.2944l-3.1067-.359-.0055 10.41-1.9389.3356v-12.301l20 3.0333z"/>
    <path d="M40.556 41.488l9.7922-5.5956 19.027 6.9189c-.5456-5.62-5.28-10.033-11.041-10.033-1.3433 0-2.6544.2411-3.91.7178-2.52-3.249-6.3922-5.1622-10.534-5.1622-7.3522 0-13.333 5.981-13.333 13.333 0 .1289.0022.2567.0078.3833-3.45 1.9833-5.5634 5.6033-5.5634 9.6167 0 6.1267 4.9844 11.111 11.111 11.111h4.4444z"/>
    <path d="M42.778 56.944v10.278l7.7778 4.4444v-17.778zm6.6667 1.1989v10.746l-1.6667-.8333v-9.3633l-2.2222.731v7.5179l-1.6667-.83v-7.25l3.8889-1.28 1.6667-.549z"/>
</svg>