<svg xmlns="http://www.w3.org/2000/svg" version="1.1" viewBox="0 0 100 100">
  <path d="M63.2 25.6c-.4-.4933-1.0933-.6-1.0933-.6H35.4c-4 0-4 3.2933-4 3.2933V33h3.1067c1.6 0 3 1.2933 3 3 0 1.6-1.3067 3-3 3H31.4v4.3067h3.1067c1.6 0 3 1.2933 3 2.9866 0 1.6-1.3067 3.0134-3 3.0134H31.4V53.6h3.1067c1.6 0 3 1.2933 3 3 0 1.6-1.3067 3-3 3H31.4V63c0 .8.6 1.4 1.4 1.4h12.3067V47.6c0-4.2933 5.8933-7.3067 14.2933-7.3067V29.8c0-.8 0-.9067-.8-.9067H34.2c-.0933-1.6 1.5067-2 1.5067-2h24.4C61.6 26.8933 61.6 28.2 61.6 28.2v12.0933c.6 0 1.1067.1067 1.6.1067h.2V26.2933c0-.2-.0933-.4933-.2-.6933z" class="st1"/>
  <path d="M59.7 42.8c-7.1067 0-12 2.2933-12 4.8v22.6933C48.1 72.6933 53.1 75 59.9 75c7 0 11.5067-2.2 11.6-4.7067V47.8c0-2.5067-4.7067-5-11.8-5zm.2 7c-5.1067 0-9.2-1.2-9.2-2.6 0-1.5067 4.0933-2.6 9.2-2.6 5.1067 0 8.4933 1.2 8.4933 2.6933 0 1.4-3.4933 2.5067-8.4933 2.5067zM35.9 46.2c0 .8-.6 1.4-1.4 1.4h-4.6c-.8 0-1.4-.6-1.4-1.4 0-.8.6-1.4 1.4-1.4h4.6c.8-.0933 1.4.6 1.4 1.4zM35.9 35.9c0 .8-.6 1.4-1.4 1.4h-4.6c-.8 0-1.4-.6-1.4-1.4 0-.8.6-1.4 1.4-1.4h4.6c.8 0 1.4.6933 1.4 1.4zM35.9 56.4c0 .8-.6 1.4-1.4 1.4h-4.6c-.8 0-1.4-.6-1.4-1.4 0-.8.6-1.4 1.4-1.4h4.6c.8 0 1.4.6 1.4 1.4z" class="st1"/>
</svg>