<svg xmlns="http://www.w3.org/2000/svg" version="1.1" viewBox="0 0 100 100">
  <path d="M50 75c-1.1952 0-2.3904-.498-3.2868-1.3944L26.3943 53.2869C25.498 52.3903 25 51.2949 25 50c0-1.1952.498-2.3904 1.3944-3.2868l20.3187-20.3188C47.6097 25.498 48.7051 25 50 25c1.1952 0 2.3904.498 3.2868 1.3944l20.3188 20.3187C74.502 47.6097 75 48.7051 75 50c0 1.2948-.498 2.3904-1.3944 3.2868L53.2869 73.6056C52.3903 74.502 51.1951 75 50 75" class="st0"/>
  <path style="fill:#ffffff" d="M70.518 49.8008l-6.5738-6.5737v4.6813h-6.972c-.6973-2.3905-2.5897-4.2829-4.9802-4.9801v-6.773h4.5817L50 29.5818l-6.5737 6.5737h4.5817v6.6733c-2.3905.6972-4.2829 2.5896-4.9801 4.98h-6.9721v-4.5816l-6.5737 6.5737 6.5737 6.5737v-4.6813h6.972c.6973 2.3905 2.5897 4.2829 4.9802 4.9801v4.5817c-.996.6972-2.49 2.2908-2.49 3.984 0 2.49 1.992 4.4821 4.482 4.4821s4.482-1.992 4.482-4.482c0-1.7929-1.494-3.287-2.49-3.9841v-4.6813c2.3905-.6972 4.2829-2.5896 4.9801-4.98h6.9721v4.5816z"/>
  <path d="M50 44.522c-2.8885 0-5.2789 2.3903-5.2789 5.2788 0 2.8884 2.3905 5.2789 5.2789 5.2789 2.8885 0 5.2789-2.3905 5.2789-5.2789 0-2.8885-2.3904-5.2789-5.2789-5.2789z" class="st0"/>
</svg>