<svg xmlns="http://www.w3.org/2000/svg" version="1.1" viewBox="0 0 100 100">
  <path stroke-linecap="butt" stroke-width=".75" d="M37.9568 62.05V45.1311C30.5816 46.1082 25 52.3992 25 60.0422c0 8.3121 6.639 14.9511 14.9645 14.9511 7.6295 0 13.9205-5.5816 14.8976-12.9434zm-8.031-6.0234h4.0154v4.0156h-4.0155zm8.031 16.0621h-4.0156v-4.0155h4.0156zm12.0465-4.0155h-4.0155v-4.0155h4.0155z" class="st1"/>
  <path stroke-linecap="butt" stroke-width=".75" d="M57.5325 25.0067c-9.838 0-17.5747 7.6295-17.5747 17.4675v17.5613h17.5747C67.357 60.0355 75 52.2989 75 42.4742c0-9.838-7.6429-17.4675-17.4675-17.4675zm-6.532 26.5025h-3.5069V39.9578h3.507zm7.5358 0h-3.5202v-8.031h3.5202zm7.5225 0h-3.507V35.9423h3.507z" class="st1"/>
</svg>