<svg xmlns="http://www.w3.org/2000/svg" version="1.1" viewBox="0 0 100 100">
  <path d="M56.5632 53.1716c.04 0 .0666-.0133.0932-.0266l6.6498-3.838c.0667-.0266.1066-.0932.1066-.1732 0-.0666-.04-.1333-.1066-.1732l-6.6897-3.8513c-.0667-.04-.1333-.04-.2 0l-6.6497 3.8246c-.0666.04-.0933.1066-.0933.1732 0 .08.0267.1466.0933.1733l6.6898 3.8646c.04.0133.0666.0266.1066.0266zm-.9595 9.3684c.0266 0 .0666 0 .0933-.0133.0666-.04.1066-.1067.1066-.1866v-7.7159c0-.0666-.04-.1333-.1066-.1732l-6.6632-3.838a.2045.2045 0 0 0-.2132 0c-.0533.0267-.0933.0933-.0933.1732v7.716c0 .0666.04.1332.0933.1732l6.6765 3.838c.0266.0266.0666.0266.1066.0266zm1.879 0c.04 0 .08 0 .1066-.0133l6.6631-3.8513c.0666-.04.1066-.1066.1066-.1733v-7.6625c0-.08-.04-.1466-.1066-.1866a.2599.2599 0 0 0-.1999 0l-6.6631 3.8513c-.0666.04-.1066.1066-.1066.1732v7.6626c0 .08.04.1466.1066.1732.0266.0267.0666.0267.0933.0267zm-2.7985-22.5746l-4.0912-2.3588c-.0666-.04-.1466-.04-.1999 0l-4.1045 2.3588H38.906c-1.1327 0-2.0522 1.026-2.0522 2.1588v15.1652h-2.8518v-21.895l32.2228-.04v4.611zm6.8097 27.7318h11.0607c1.1328 0 2.2921-1.0128 2.2921-2.1455V42.1242c0-1.1327-1.1593-2.1588-2.292-2.1588h-3.4382v-5.3305c0-1.146-1.1594-2.1589-2.2921-2.1589h-3.678V27.159C63.1596 26.0128 62.0002 25 60.8541 25H27.2188c-1.146 0-2.0656 1.0261-2.0656 2.1589v23.4275c0 1.1327.9196 2.1455 2.0656 2.1455h3.9046v5.3305c0 1.1327.9195 2.1455 2.0656 2.1455h3.6647v5.3438c0 1.1327.9195 2.1455 2.0522 2.1455h12.2468c1.2394 4.3844-.4264 5.0107-7.7292 5.0107V75h24.84v-2.2921c-7.3027 0-8.0223-.6263-6.7696-5.0107zm10.7676-2.9184H40.0253V42.897l32.2362-.0533zM48.6874 32.476l-4.0645-2.3454a.2599.2599 0 0 0-.2 0l-4.0644 2.3454H33.189c-1.146 0-2.0656 1.0128-2.0656 2.1589v15.1785h-3.0917v-21.895l32.2362-.04v4.5976z"/>
</svg>